<svg width="652" height="664" viewBox="0 0 652 664" fill="none" xmlns="http://www.w3.org/2000/svg">
<path d="M538.771 638.112C444.185 711.696 280.937 616.971 199.784 497.535C118.63 378.1 68.7493 440.846 18.2564 376.601C-13.3917 336.333 -22.9601 218.038 152.8 132.733C328.56 47.4287 434.534 -91.8998 576.576 86.5108C718.617 264.921 633.357 564.529 538.771 638.112Z" fill="url(#paint0_radial)"/>
<path d="M413.318 145.746C412.833 144.324 412.274 143.023 412.091 141.67C411.714 138.887 411.41 136.081 411.305 133.277C411.088 127.456 411.018 120.664 410.893 114.84C410.874 113.952 410.699 113.044 412.128 112.994C413.561 112.944 420.396 108.582 420.396 111.894C420.396 118.766 421.355 129.286 421.955 136.039C422.15 138.221 423.055 139.999 423.102 142.533C423.182 146.804 415.641 145.696 413.318 145.746Z" fill="white"/>
<path fill-rule="evenodd" clip-rule="evenodd" d="M318.019 83.6804C316.519 83.8099 315.021 84.0348 313.52 84.0538C304.211 84.1719 294.901 84.2344 285.593 84.3514C285.035 84.3584 282.545 84.3656 281.988 84.373C279.546 84.4056 277.104 84.4423 274.662 84.4852C273.52 84.5053 274.31 84.5399 273.169 84.5846C269.109 84.7434 265.051 85.0288 260.993 85.2364C258.716 85.3528 256.436 85.4446 254.164 85.632C248.227 86.1219 219.111 87.639 213.175 88.1316C211.774 88.2478 210.97 88.5963 211.086 90.3212C211.347 94.2069 211.446 165.728 211.478 169.624C211.487 170.767 211.804 171.02 212.866 170.93C216.444 170.626 243.213 169.425 246.795 169.171C250.506 168.907 254.216 168.616 257.93 168.401C262.999 168.108 268.072 167.886 273.141 167.604C273.869 167.563 274.584 167.326 275.312 167.233C278.45 166.832 281.586 166.404 284.733 166.075C287.791 165.756 290.857 165.492 293.925 165.296C300.558 164.873 307.191 164.423 313.831 164.145C319.792 163.896 325.762 163.864 331.727 163.731C337.305 163.606 342.882 163.463 348.46 163.346C355.073 163.206 361.686 163.067 368.299 162.959C377.177 162.813 386.056 162.716 394.934 162.557C399.348 162.478 403.759 162.315 408.172 162.176C411.937 162.057 415.701 161.871 419.467 161.799C427.827 161.638 436.188 161.521 444.549 161.403C454.463 161.264 464.379 161.204 474.291 160.991C481.241 160.842 498.814 160.506 505.759 160.2C506.099 160.185 506.693 159.654 506.699 159.354C506.767 156.055 506.74 85.1319 506.743 81.8309C506.746 80.4321 505.936 79.6423 504.675 79.4345C503.194 79.1905 501.682 79.0794 500.179 79.0318C495.056 78.8694 479.304 78.6337 474.181 78.6535C455.593 78.7254 437.006 78.8693 418.419 79.0278C416.349 79.0454 414.28 79.0624 412.21 79.0812C404.818 79.148 397.425 79.2364 390.037 79.4517C385.466 79.585 380.91 80.2161 376.343 80.5649C370.811 80.9874 365.274 81.353 359.739 81.7366C357.722 81.8764 355.704 81.9941 353.686 82.1273C347.828 82.5141 341.973 83.0054 336.109 83.2634C330.214 83.5228 324.308 83.551 318.019 83.6804Z" fill="white"/>
<path fill-rule="evenodd" clip-rule="evenodd" d="M201.298 53.9694C198.727 53.72 196.179 53.2192 193.622 52.8241C193.448 52.7972 193.284 52.7048 193.116 52.6429C193.276 52.5753 193.432 52.4894 193.599 52.4463C193.721 52.415 193.857 52.4429 193.986 52.4398C199.5 52.3108 205.015 52.221 210.527 52.0416C217.154 51.8259 223.779 51.5421 230.404 51.2708C232.941 51.1669 235.475 50.989 238.012 50.8927C242.036 50.74 246.061 50.6371 250.086 50.495C253.334 50.3804 256.582 50.2313 259.83 50.1112C266.973 49.8471 274.117 49.5999 281.26 49.3286C283.991 49.2248 286.719 49.0429 289.45 48.9512C294.057 48.7965 298.666 48.6983 303.272 48.5516C306.651 48.444 310.027 48.2874 313.405 48.1699C317.429 48.03 321.455 47.9195 325.479 47.7755C328.598 47.6638 331.716 47.4925 334.835 47.3969C339.83 47.2439 344.827 47.1425 349.823 46.9987C353.718 46.8866 357.613 46.7374 361.509 46.6153C365.857 46.479 370.206 46.3548 374.554 46.2253C378.903 46.0958 383.251 45.9633 387.6 45.8377C392.207 45.7045 396.815 45.5798 401.422 45.4479C405.858 45.3209 410.293 45.1831 414.729 45.0617C419.724 44.9249 424.72 44.8017 429.716 44.6714C434.648 44.5427 439.579 44.4099 444.51 44.2838C449.7 44.1511 454.89 44.0254 460.08 43.8943C465.141 43.7665 470.203 43.6811 475.261 43.4915C479.123 43.3468 482.978 43.0537 486.838 42.866C487.409 42.8383 487.992 43.113 488.568 43.1051C496.542 42.9944 504.516 42.8711 512.49 42.7254C518.457 42.6163 524.424 42.4655 530.391 42.3423C536.94 42.207 543.489 42.0375 550.04 41.9668C553.438 41.9363 555.673 43.4698 556.474 46.6764C556.873 48.2741 556.663 50.0312 556.675 51.7166C556.706 56.0487 556.756 60.3817 556.7 64.7131C556.666 67.4111 556.452 70.1067 556.324 72.8037C556.3 73.3169 556.294 73.8313 556.294 74.3452C556.292 79.9996 556.337 85.6544 556.283 91.3082C556.188 101.225 556.042 111.14 555.902 121.056C555.785 129.289 555.645 137.522 555.516 145.754C555.386 154.117 555.258 162.479 555.127 170.841C554.999 179.074 554.887 187.307 554.732 195.539C554.641 200.407 554.447 205.272 554.362 210.139C554.303 213.527 554.387 216.916 554.343 220.304C554.236 228.667 554.11 237.029 553.955 245.391C553.866 250.193 553.669 254.994 553.585 259.796C553.526 263.249 553.622 266.704 553.562 270.156C553.48 274.894 553.277 279.629 553.198 284.367C553.136 288.014 553.235 291.663 553.172 295.309C553.098 299.659 552.886 304.006 552.81 308.355C552.747 311.872 552.834 315.392 552.79 318.909C552.683 327.466 552.545 336.022 552.406 344.579C552.287 351.905 552.163 359.232 552.016 366.558C551.909 371.878 551.723 377.197 551.644 382.517C551.583 386.617 551.682 390.719 551.618 394.818C551.551 399.039 551.324 403.256 551.257 407.476C551.193 411.511 551.294 415.548 551.229 419.583C551.167 423.415 550.93 427.244 550.869 431.076C550.804 435.175 550.895 439.277 550.846 443.377C550.745 451.869 550.602 460.361 550.464 468.853C550.344 476.309 550.347 483.77 550.038 491.219C549.741 498.382 551.391 505.025 554.954 511.141C558.582 517.37 562.47 523.451 566.326 529.545C570.138 535.569 573.484 541.84 575.256 548.755C576.521 553.691 576.707 558.816 575.286 563.813C574.801 565.522 571.842 577.309 574.359 580.372C577.591 584.303 581.677 586.067 586.709 586.182C591.615 586.294 596.272 585.101 600.973 584.012C606.689 582.689 612.427 581.734 618.182 583.822C621.046 584.861 623.628 586.329 625.321 588.979C625.579 589.383 626.205 590.061 624.838 590.069C621.524 590.086 618.212 590.291 614.899 590.421C608.274 590.68 601.649 590.946 595.023 591.195C591.193 591.339 587.362 591.462 583.531 591.584C579.247 591.721 574.964 591.853 570.68 591.972C565.684 592.111 560.688 592.246 555.692 592.36C549.466 592.502 543.24 592.633 537.014 592.748C529.364 592.89 521.714 593.026 514.064 593.136C503.889 593.281 493.714 593.384 483.539 593.533C476.601 593.636 469.663 593.79 462.725 593.914C461.538 593.935 460.35 593.907 459.163 593.918C444.845 594.045 430.526 594.176 416.208 594.304C414.956 594.315 413.704 594.296 412.452 594.306C397.81 594.434 383.168 594.565 368.526 594.692C367.21 594.703 365.892 594.683 364.576 594.695C350.063 594.822 335.551 594.953 321.039 595.08C319.786 595.091 318.534 595.072 317.282 595.083C302.64 595.211 287.998 595.342 273.357 595.469C272.169 595.479 270.981 595.461 269.794 595.472C255.152 595.599 240.511 595.73 225.869 595.857C224.617 595.868 223.364 595.849 222.112 595.86C207.47 595.987 192.828 596.118 178.187 596.246C177.064 596.256 175.941 596.239 174.818 596.248C159.918 596.376 145.017 596.505 130.116 596.643C129.878 596.646 129.642 596.765 129.404 596.927C129.404 597.024 129.21 597.024 129.113 597.024C128.59 596.895 128.164 596.658 127.737 596.653C124.824 596.62 121.91 596.641 118.997 596.626C118.719 596.625 118.441 596.49 118.163 596.418C118.399 596.361 118.636 596.31 118.869 596.246C125.099 594.564 131.286 592.688 137.576 591.272C141.141 590.47 144.87 590.344 148.537 590.056C151.647 589.812 154.771 589.732 157.891 589.665C159.073 589.64 158.975 589.376 158.664 588.348C157.356 584.021 155.852 579.698 155.159 575.258C154.583 571.571 154.897 567.715 155.09 563.948C155.228 561.248 155.622 558.523 156.258 555.895C156.99 552.87 157.955 549.877 159.098 546.981C162.114 539.337 167.477 533.367 173.021 527.472C176.335 523.949 179.341 520.078 182.055 516.071C183.696 513.649 184.579 510.694 184.567 507.615C184.548 502.76 184.609 497.904 184.551 493.049C184.464 485.851 184.313 478.654 184.17 471.458C184.056 465.684 183.878 459.912 183.793 454.139C183.636 443.511 183.586 432.881 183.373 422.255C183.259 416.601 182.77 410.955 182.688 405.302C182.618 400.499 183.043 395.689 182.971 390.886C182.87 384.059 182.501 377.236 182.288 370.41C182.263 369.631 182.61 368.844 182.604 368.062C182.496 353.161 182.301 338.26 182.247 323.359C182.182 305.34 182.281 287.32 182.216 269.3C182.163 254.593 181.867 239.886 181.871 225.18C181.876 209.049 182.127 192.918 182.222 176.786C182.275 167.636 182.182 158.485 182.247 149.335C182.297 142.267 182.499 135.2 182.614 128.132C182.649 125.974 182.597 123.815 182.624 121.657C182.744 111.676 182.899 101.695 182.999 91.7139C183.05 86.7073 182.958 81.6991 183.023 76.6929C183.084 72.0197 183.268 67.3481 183.395 62.6757C183.41 62.1127 183.404 61.5491 183.407 60.9858C183.533 61.6099 183.701 62.229 183.778 62.8591C184.309 67.1747 184.836 71.4909 185.331 75.8107C185.51 77.3699 185.616 78.9383 185.724 80.5046C185.993 84.4104 186.242 88.3176 186.505 92.2239C186.89 97.9545 210.302 103.213 210.353 102.587C210.561 103.187 210.782 103.783 210.973 104.388C212.707 109.872 213.794 115.474 214.524 121.189C215.56 129.3 215.644 137.426 215.643 145.573C215.633 251.486 215.642 357.398 215.587 463.311C215.586 465.022 216.113 465.702 217.659 466.149C222.736 467.617 227.957 468.149 233.136 467.601C242.929 466.564 260.488 463.121 268.198 456.717C274.358 451.601 278.742 445.342 281.349 437.894C282.367 434.983 282.6 431.764 282.945 428.657C283.26 425.818 283.542 422.918 283.306 420.088C282.905 415.285 282.135 410.509 281.428 405.735C280.852 401.851 280.029 398.001 279.515 394.11C278.765 388.435 278.034 382.75 277.595 377.046C277.227 372.262 276.877 367.414 277.244 362.651C277.994 352.919 279.513 343.278 282.199 333.853C285.07 323.779 289.071 314.164 294.048 304.97C297.75 298.13 301.992 291.608 307.092 285.715C311.045 281.147 315.153 276.709 319.32 272.334C321.095 270.471 323.233 268.959 325.142 267.218C332.401 260.598 337.716 252.438 343.201 244.407C347.483 238.14 342.863 231.699 347.565 225.758C353.756 217.935 361.353 211.734 371.224 209.006C374.854 208.003 378.589 207.36 382.296 206.661C390.168 205.176 398.147 205.267 406.086 205.547C414.336 205.838 422.176 207.917 429.22 212.47C435.025 216.222 439.238 221.483 442.828 227.219C447.024 233.923 450.989 240.777 454.889 247.66C459.903 256.51 464.77 265.443 469.665 274.36C472.297 279.155 474.891 283.972 477.44 288.812C482.729 298.855 502.905 338.406 507.741 348.12C507.922 348.483 508.144 348.826 508.347 349.178C508.533 348.737 508.856 348.304 508.883 347.853C509.175 342.848 509.426 337.841 509.68 332.833C509.944 327.632 510.204 322.431 510.456 317.229C510.721 311.769 510.984 306.309 511.232 300.849C511.501 294.936 511.762 289.022 512.009 283.108C512.279 276.613 512.532 270.116 512.787 263.62C512.922 260.178 513.053 256.736 513.175 253.293C513.311 249.463 513.435 245.632 513.565 241.801C513.694 238.035 513.834 234.27 513.951 230.503C514.091 226.025 514.214 221.547 514.342 217.069C514.473 212.461 514.61 207.854 514.728 203.246C514.868 197.797 514.996 192.348 515.117 186.899C515.255 180.673 515.393 174.447 515.504 168.221C515.648 160.053 515.748 151.884 515.902 143.716C515.995 138.784 516.224 133.854 516.268 128.922C516.331 121.65 516.238 114.376 516.301 107.104C516.341 102.431 516.551 97.7591 516.66 93.0863C516.671 92.617 516.504 92.1435 516.42 91.672C516.021 91.9605 515.564 92.1936 515.234 92.5463C512.708 95.2477 509.516 96.2118 505.921 96.3504C500.394 96.5635 495.177 94.9332 489.876 93.8045C484.797 92.7233 479.693 91.5134 474.488 92.1351C471.395 92.5045 468.328 93.4301 465.36 94.433C460.572 96.0503 456.016 95.5598 451.482 93.619C447.083 91.7361 442.724 89.7378 438.242 88.0776C434.207 86.5832 429.926 86.598 426.013 88.3044C424.103 89.1374 422.186 90.9241 421.228 92.7742C418.986 97.1013 415.602 99.1143 410.955 99.8788C404.823 100.887 399.418 98.8262 393.966 96.5884C389.54 94.7712 385.159 92.7248 380.572 91.4447C374.449 89.7359 368.823 91.5898 363.748 95.2416C360.558 97.5374 357.551 100.179 354.116 102.022C349.51 104.493 342.796 104.849 339.161 100.77C338.525 100.056 337.878 99.2007 337.647 98.3046C336.73 94.7569 334.433 93.993 331.243 93.6245C326.649 93.0939 323.275 95.5648 319.943 98.2317C316.859 100.7 313.983 103.447 309.791 104.219C306.463 104.832 303.335 104.396 300.384 103.127C295.381 100.977 290.472 98.593 285.602 96.1491C281.247 93.9631 276.593 92.875 271.919 93.7672C268.908 94.342 266.073 96.2149 263.35 97.8293C260.048 99.7875 257.098 102.364 253.728 104.176C247.93 107.294 242.735 107.364 235.308 106.147C227.882 104.93 209.968 93.3239 209.071 92.1351C208.946 91.9695 206.179 54.4427 201.298 53.9694Z" fill="white"/>
<path fill-rule="evenodd" clip-rule="evenodd" d="M418.278 307.55C425.319 306.877 429.771 308.28 431.111 312.267C433.376 319.005 416.878 328.015 411.057 327.473C409.016 325.602 429.28 320.545 427.448 313.498C426.982 311.705 424.099 310.875 418.646 311.396C417.584 311.498 416.64 310.719 416.539 309.657C416.437 308.594 417.216 307.651 418.278 307.55Z" fill="#00160A"/>
<path fill-rule="evenodd" clip-rule="evenodd" d="M336.718 325.979C339.493 325.979 340.527 323.816 339.055 321.148C337.615 318.481 334.796 316.318 332.731 316.318C330.665 316.318 329.559 318.481 330.29 321.148C331.052 323.816 333.943 325.979 336.718 325.979Z" fill="#FFB61D"/>
<path fill-rule="evenodd" clip-rule="evenodd" d="M390.815 338.537C393.59 338.537 394.624 336.374 393.152 333.707C391.712 331.039 388.893 328.876 386.827 328.876C384.761 328.876 383.656 331.039 384.387 333.707C385.149 336.374 388.04 338.537 390.815 338.537Z" fill="#FFB61D"/>
<path fill-rule="evenodd" clip-rule="evenodd" d="M553.904 41.0004C557.302 40.9704 559.536 42.5039 560.337 45.7105C560.737 47.3082 560.527 49.0654 560.539 50.7507C560.57 55.0829 560.62 59.4158 560.564 63.7472C560.53 66.4452 560.316 69.1409 560.188 71.8379C560.164 72.351 560.158 72.8655 560.158 73.3793C560.156 79.0337 560.201 84.6885 560.147 90.3423C560.052 100.259 559.906 110.174 559.766 120.09C559.649 128.323 559.508 136.556 559.38 144.789C559.25 153.151 559.122 161.513 558.991 169.875C558.863 178.108 558.751 186.341 558.596 194.573C558.504 199.441 558.311 204.306 558.226 209.173C558.167 212.561 558.251 215.95 558.207 219.338C558.1 227.701 557.974 236.063 557.819 244.425C557.729 249.228 557.533 254.028 557.449 258.831C557.39 262.283 557.486 265.738 557.426 269.19C557.343 273.928 557.141 278.663 557.061 283.401C557 287.048 557.099 290.697 557.036 294.343C556.962 298.693 556.75 303.04 556.673 307.389C556.611 310.906 556.698 314.426 556.653 317.943C556.546 326.5 556.409 335.056 556.27 343.613C556.151 350.939 556.027 358.266 555.88 365.592C555.773 370.912 555.587 376.231 555.508 381.551C555.446 385.651 555.546 389.753 555.481 393.853C555.415 398.073 555.188 402.29 555.121 406.51C555.057 410.545 555.157 414.583 555.092 418.617C555.031 422.449 554.794 426.278 554.733 430.11C554.668 434.209 554.759 438.311 554.71 442.411C554.609 450.904 554.466 459.395 554.328 467.887C554.208 475.343 554.211 482.804 553.902 490.253C553.605 497.416 555.255 504.059 558.817 510.175C562.446 516.404 566.334 522.485 570.19 528.579C574.002 534.603 577.348 540.875 579.12 547.789C580.385 552.725 580.571 557.85 579.15 562.847C578.665 564.556 575.706 576.343 578.223 579.406C581.455 583.337 585.541 585.101 590.573 585.216C595.478 585.328 600.136 584.135 604.837 583.046C610.553 581.723 616.291 580.768 622.046 582.856C624.91 583.895 627.492 585.363 629.185 588.013C629.443 588.417 630.069 589.095 628.701 589.103C625.388 589.12 622.076 589.325 618.763 589.455C612.138 589.714 605.512 589.98 598.887 590.229C595.057 590.373 591.226 590.496 587.395 590.618C583.111 590.755 578.828 590.887 574.544 591.006C569.548 591.145 564.552 591.28 559.556 591.394C553.33 591.536 547.104 591.667 540.878 591.782C533.228 591.924 525.578 592.06 517.928 592.17C507.753 592.315 497.578 592.418 487.403 592.567C480.465 592.67 473.527 592.824 466.589 592.948C465.402 592.969 464.214 592.942 463.027 592.952C448.708 593.079 434.39 593.21 420.072 593.338C418.82 593.349 417.568 593.33 416.316 593.341C401.674 593.468 387.032 593.599 372.39 593.726L368.439 593.729C353.927 593.856 339.415 593.987 324.902 594.114C323.65 594.125 322.398 594.106 321.146 594.117C306.504 594.245 291.862 594.376 277.22 594.503C276.033 594.513 274.845 594.495 273.658 594.506C259.016 594.633 244.374 594.764 229.733 594.891C228.48 594.902 227.228 594.883 225.976 594.894C211.334 595.021 196.692 595.152 182.051 595.28C180.928 595.29 179.805 595.273 178.682 595.283C163.782 595.41 148.881 595.539 133.98 595.677C133.742 595.68 133.506 595.799 133.268 595.961C133.268 596.058 133.074 596.058 132.977 596.058C132.453 595.929 132.028 595.692 131.601 595.687C128.688 595.654 125.774 595.676 122.861 595.66C122.583 595.659 122.305 595.524 122.027 595.452C122.263 595.395 122.499 595.344 122.733 595.28C128.963 593.598 135.15 591.722 141.44 590.306C145.005 589.504 148.734 589.378 152.401 589.09C155.51 588.846 158.635 588.766 161.755 588.699C162.937 588.674 162.839 588.41 162.528 587.382C161.22 583.055 159.716 578.732 159.023 574.292C158.447 570.605 158.76 566.749 158.953 562.982C159.092 560.282 159.486 557.557 160.122 554.929C160.854 551.904 161.819 548.911 162.962 546.015C165.978 538.371 171.341 532.401 176.885 526.506C180.199 522.983 183.205 519.112 185.919 515.106C187.56 512.683 188.443 509.728 188.431 506.649C188.412 501.794 188.473 496.938 188.415 492.083C188.328 484.885 188.177 477.689 188.034 470.492C187.92 464.718 187.742 458.946 187.657 453.173C187.5 442.545 187.449 431.915 187.236 421.289C187.123 415.635 186.634 409.989 186.552 404.336C186.482 399.533 186.906 394.723 186.835 389.92C186.734 383.093 186.365 376.27 186.152 369.444C186.127 368.666 186.473 367.878 186.468 367.096C186.36 352.195 186.165 337.294 186.111 322.393C186.045 304.374 186.145 286.354 186.08 268.334C186.027 253.627 185.731 238.921 185.735 224.214C185.74 208.083 185.991 191.952 186.085 175.821C186.139 166.67 186.046 157.519 186.111 148.37C186.161 141.301 186.363 134.234 186.478 127.166C186.513 125.008 186.461 122.849 186.487 120.691C186.608 110.71 186.763 100.729 186.863 90.748C186.913 85.7414 186.822 80.7333 186.887 75.727C186.948 71.0538 187.132 66.3822 187.259 61.7099C187.274 61.1468 187.268 60.5832 187.271 60.0199C187.397 60.644 187.565 61.2631 187.642 61.8932C188.173 66.2088 188.7 70.525 189.195 74.8449C189.373 76.4041 189.479 77.9724 189.588 79.5387C189.857 83.4445 190.106 87.3518 190.369 91.258C190.754 96.9886 191.171 102.717 191.525 108.45C191.823 113.26 192.089 118.073 192.301 122.888C192.596 129.577 192.842 136.268 193.082 142.959C193.238 147.307 193.431 151.655 193.461 156.005C193.621 178.804 193.74 201.603 193.86 224.402C193.887 229.603 193.909 234.805 193.854 240.006C193.761 248.692 193.608 257.378 193.475 266.064C193.349 274.297 193.237 282.531 193.078 290.763C193 294.789 192.812 298.812 192.706 302.838C192.661 304.542 192.708 306.249 192.697 307.954C192.57 326.998 192.381 346.043 192.336 365.087C192.315 374.096 192.548 383.107 192.708 392.116C192.784 396.401 192.948 400.684 193.09 404.968C193.204 408.411 193.325 411.853 193.48 415.295C193.721 420.626 193.972 425.958 194.259 431.287C194.484 435.454 194.746 439.62 195.035 443.783C195.398 448.997 195.776 454.211 196.21 459.42C196.374 461.392 196.626 463.367 197.019 465.304C197.153 465.961 197.72 466.704 198.301 467.066C201.972 469.35 205.78 468.123 208.824 465.849C212.353 463.213 213.879 459.341 214.032 455.036C214.275 448.209 214.431 441.375 214.434 434.544C214.462 367.711 214.497 300.879 214.434 234.046C214.393 190.531 214.191 147.015 214.069 103.499C214.067 102.874 214.166 102.247 214.217 101.622C214.425 102.222 214.646 102.817 214.837 103.422C216.571 108.907 217.657 114.508 218.387 120.223C219.424 128.335 219.508 136.46 219.507 144.607L219.496 303.476C219.49 356.432 219.479 409.389 219.451 462.345C219.45 464.056 219.977 464.736 221.523 465.183C226.6 466.651 231.821 467.183 237 466.635C246.793 465.598 255.658 462.155 263.368 455.751C269.527 450.635 273.912 444.376 276.518 436.928C277.537 434.017 277.77 430.798 278.115 427.691C278.43 424.852 278.712 421.952 278.476 419.122C278.075 414.319 277.305 409.543 276.597 404.77C276.022 400.885 275.199 397.035 274.684 393.144C273.935 387.469 273.204 381.784 272.765 376.08C272.397 371.296 272.046 366.448 272.413 361.685C273.164 351.953 274.683 342.312 277.369 332.887C280.239 322.813 284.241 313.198 289.218 304.004C292.92 297.164 297.162 290.642 302.262 284.749C306.215 280.181 310.323 275.743 314.49 271.368C316.265 269.505 318.402 267.993 320.312 266.252C327.57 259.632 332.886 251.472 338.371 243.442C342.652 237.174 346.727 230.733 351.429 224.792C357.62 216.969 365.217 210.768 375.088 208.04C378.718 207.037 382.453 206.394 386.16 205.695C394.032 204.21 402.011 204.301 409.95 204.581C418.2 204.872 426.04 206.951 433.084 211.504C438.889 215.256 443.102 220.518 446.692 226.253C450.888 232.957 454.853 239.811 458.753 246.694C463.767 255.544 468.634 264.477 473.529 273.394C476.161 278.189 478.755 283.006 481.304 287.847C484.488 293.893 486.315 296.254 488.886 302.838C490.584 307.188 493.589 315.338 495.644 319.359C499.741 327.379 500.453 332.668 503.445 340.113C504.058 341.637 507.283 343.503 508.022 345.2C509.399 348.362 512.2 352.943 512.403 353.295C512.588 352.854 512.72 347.338 512.747 346.888C513.039 341.882 513.29 336.875 513.544 331.867C513.807 326.666 514.068 321.465 514.32 316.263C514.585 310.804 514.848 305.343 515.096 299.883C515.365 293.97 515.626 288.056 515.873 282.142C516.143 275.647 516.396 269.15 516.651 262.654C516.786 259.212 516.917 255.77 517.039 252.327C517.175 248.497 517.299 244.666 517.429 240.835C517.558 237.069 517.697 233.304 517.815 229.537C517.955 225.06 518.078 220.581 518.205 216.103C518.337 211.496 518.474 206.888 518.592 202.28C518.731 196.831 518.86 191.382 518.981 185.933C519.118 179.707 519.257 173.481 519.367 167.255C519.512 159.087 519.612 150.918 519.766 142.75C519.859 137.818 520.088 132.888 520.132 127.956C520.195 120.684 520.102 113.41 520.165 106.138C520.205 101.465 520.415 96.7932 520.524 92.1204C520.535 91.6511 520.368 91.1776 520.284 90.7061C519.885 90.9946 519.428 91.2278 519.098 91.5804C516.572 94.2818 513.38 95.2459 509.785 95.3845C504.258 95.5976 499.041 93.9673 493.739 92.8386C488.661 91.7574 483.557 90.5475 478.352 91.1692C475.259 91.5386 472.192 92.4642 469.224 93.4671C464.436 95.0844 459.88 94.5939 455.346 92.6531C450.947 90.7702 446.588 88.7719 442.106 87.1117C438.071 85.6173 433.79 85.6321 429.877 87.3385C427.967 88.1715 426.05 89.9582 425.092 91.8083C422.85 96.1355 419.466 98.1484 414.819 98.9129C408.687 99.9215 403.282 97.8603 397.83 95.6225C393.403 93.8053 389.022 91.7589 384.436 90.4788C378.313 88.7701 372.687 90.6239 367.612 94.2757C364.422 96.5715 361.415 99.2127 357.98 101.056C353.374 103.527 346.66 103.883 343.025 99.8041C342.389 99.0904 341.742 98.2348 341.511 97.3387C340.594 93.791 338.297 93.0271 335.107 92.6586C330.513 92.128 327.139 94.5989 323.807 97.2658C320.723 99.7345 317.847 102.481 313.655 103.253C310.327 103.866 307.199 103.43 304.248 102.162C299.245 100.011 294.336 97.6272 289.466 95.1832C285.111 92.9972 280.457 91.9091 275.783 92.8013C272.772 93.3761 269.937 95.249 267.214 96.8634C263.912 98.8216 260.962 101.398 257.592 103.21C251.794 106.328 245.568 106.459 239.172 105.181C232.538 103.856 227.074 100.619 222.477 95.7886C221.455 94.7152 220.622 93.4611 219.725 92.2723C219.6 92.1067 219.612 91.8379 219.561 91.6169C219.744 91.7107 219.956 91.7719 220.106 91.9032C224.948 96.1316 230.484 98.7488 236.903 99.6745C246.177 101.012 254.769 99.4605 262.496 94.0683C264.656 92.5608 266.427 90.5037 268.537 88.9129C271.864 86.4056 275.797 86.5242 279.643 86.9896C286.86 87.8627 293.125 91.6179 299.877 93.9029C305.719 95.8799 311.717 97.3924 317.896 94.9893C320.07 94.144 321.89 92.957 323.235 90.967C325.596 87.4756 330.711 86.22 334.597 86.639C340.863 87.3147 346.289 90.4299 352.237 91.9482C356.415 93.0149 360.603 93.7358 364.871 92.2761C367.177 91.4877 368.786 89.9108 370.025 87.9497C372.031 84.7755 375.077 83.645 378.579 83.3307C383.537 82.8859 387.998 84.4516 392.372 86.6038C396.57 88.6698 400.824 90.7854 405.506 91.4215C409.296 91.9365 413.048 91.183 416.563 89.5967C422.072 87.1099 427.51 84.457 433.067 82.0839C438.405 79.8045 443.599 80.2532 448.594 83.3893C451.34 85.1134 454.184 86.7478 457.153 88.0329C460.708 89.5717 464.497 89.0819 468.112 88.116C472.987 86.8134 477.72 84.9172 482.639 83.8678C486.057 83.1387 489.603 83.4172 492.387 86.3838C494.985 89.1522 498.416 89.8377 501.968 88.8269C507.508 87.2498 512.964 85.376 518.465 83.6576C521.177 82.8106 523.891 81.9911 526.782 82.9288C530.677 84.192 531.113 84.8304 530.637 88.8785C530.369 91.1655 530.047 93.4492 529.877 95.7439C529.671 98.5331 529.628 101.334 529.465 104.127C529.095 110.441 528.7 116.754 528.303 123.066C528.057 126.973 527.76 130.878 527.535 134.786C527.248 139.792 527.021 144.8 526.748 149.807C526.504 154.297 526.207 158.784 525.981 163.275C525.694 168.993 525.46 174.713 525.196 180.432C525.076 183.033 524.923 185.633 524.812 188.234C524.544 194.536 524.293 200.838 524.032 207.14C523.905 210.194 523.761 213.247 523.646 216.301C523.38 223.445 523.125 230.588 522.867 237.732C522.736 241.368 522.602 245.005 522.48 248.641C522.344 252.731 522.218 256.821 522.091 260.91C521.959 265.129 521.827 269.348 521.703 273.568C521.569 278.11 521.44 282.653 521.314 287.196C521.181 291.998 521.052 296.8 520.926 301.601C520.793 306.662 520.661 311.723 520.538 316.784C520.403 322.297 520.277 327.811 520.148 333.325C520.018 338.904 519.887 344.483 519.76 350.061C519.628 355.899 519.499 361.736 519.372 367.574L519.118 379.638C519.074 381.648 519.027 383.659 518.975 385.669C518.89 388.918 518.725 392.166 518.59 395.413C518.582 395.592 518.511 395.768 518.47 395.945C518.382 395.769 518.255 395.602 518.211 395.416C516.78 389.34 515.196 383.293 513.989 377.172C513.176 373.043 512.836 368.814 512.403 364.618C512.146 362.137 512.124 359.633 511.986 357.14C511.972 356.901 511.884 356.666 511.831 356.429C511.755 356.634 511.623 356.835 511.611 357.043C511.154 364.849 509.78 372.466 507.034 379.815C506.238 381.948 505.564 384.127 504.822 386.28C504.725 386.56 504.553 386.814 504.415 387.08C504.378 386.729 504.229 386.345 504.323 386.034C504.771 384.541 505.192 383.029 505.792 381.595C508.544 375.01 508.393 368.068 508.022 361.194C507.745 356.05 506.457 351.005 504.342 346.241C504.214 345.953 503.528 344.611 503.522 344.255C503.521 344.196 503.267 344.142 503.131 344.085C503.236 344.563 503.341 345.041 503.445 345.519C503.704 350.461 504.144 357.334 504.175 362.278C504.211 368.049 503.246 371.803 501.68 377.357C500.852 380.298 499.783 383.171 498.817 386.073C498.75 386.273 498.637 386.457 498.545 386.648C498.495 386.409 498.333 386.122 498.412 385.94C500.972 380.014 500.69 373.663 501.067 367.441C501.42 361.617 501.731 355.749 501.417 349.936C500.978 341.82 499.454 333.849 496.059 326.356C495.984 326.191 495.779 326.085 495.705 325.92C495.456 325.367 495.239 324.8 495.011 324.238C494.861 324.939 494.515 325.664 494.597 326.337C494.875 328.59 495.463 330.811 495.644 333.068C496.013 337.678 496.308 342.299 496.424 346.922C496.554 352.12 496.706 357.339 496.382 362.52C496.065 367.581 495.168 372.606 494.508 377.645C494.139 380.465 493.738 383.28 493.338 386.095C493.312 386.279 493.169 386.446 493.081 386.621C493.04 386.444 492.95 386.263 492.965 386.09C493.081 384.783 493.219 383.478 493.345 382.172C493.478 380.802 493.681 379.433 493.721 378.06C493.883 372.482 494.092 366.903 494.095 361.325C494.097 356.005 493.923 350.683 493.716 345.367C493.549 341.068 493.283 336.771 492.941 332.483C492.489 326.801 491.927 321.128 491.399 315.452C491.302 314.402 491.157 313.356 491.005 312.312C490.975 312.107 490.813 311.92 490.711 311.725C490.554 311.929 490.275 312.123 490.258 312.339C490.096 314.354 489.952 316.372 489.857 318.391C489.703 321.638 489.63 324.889 489.454 328.135C489.092 334.773 488.703 341.409 488.289 348.044C488.073 351.5 487.74 354.949 487.528 358.405C487.112 365.169 486.76 371.938 486.347 378.702C486.128 382.287 485.806 385.866 485.584 389.451C485.173 396.087 484.832 402.726 484.395 409.359C484.244 411.655 484.82 419.14 484.736 420.17C484.241 426.258 482.519 432.084 480.441 437.794C480.037 438.904 479.208 440.049 478.256 440.736C475.573 442.671 473.798 442.364 472.384 438.992C472.037 438.165 471.854 437.27 471.592 436.407C471.558 436.293 471.5 436.186 471.452 436.076C471.37 436.266 471.262 436.449 471.209 436.646C470.685 438.631 470.376 440.704 469.594 442.581C468.81 444.458 467.736 446.284 466.463 447.869C464.919 449.79 462.112 449.889 460.323 448.185C459.304 447.216 459.313 448.453 459.234 448.639C458.432 450.506 457.888 452.499 456.957 454.294C455.507 457.09 453.002 458.346 449.885 458.131C448.489 458.035 448.225 458.465 448.249 459.791C448.311 463.25 446.938 466.069 443.843 467.789C443.085 468.21 442.028 468.298 441.136 468.221C439.868 468.11 439.618 468.573 439.719 469.709C439.823 470.865 439.758 472.037 439.739 473.202C439.694 475.962 437.796 477.895 435.073 477.974C433.002 478.035 432.614 478.611 433.433 480.405C434.256 482.207 432.962 483.942 430.532 484.178C428.06 484.418 425.999 483.861 424.039 481.985C415.986 474.272 409.815 465.258 405.214 455.181C402.229 448.646 399.9 441.837 398.982 434.66C398.333 429.583 397.765 424.485 397.444 419.379C397.079 413.577 397.993 407.865 399.174 402.185C401.412 391.423 405.597 381.311 409.327 371.041C410.189 368.67 410.801 366.195 411.366 363.731C412.346 359.462 413.28 355.179 414.062 350.871C414.335 349.367 414.159 347.768 414.054 346.221C414.036 345.963 413.29 345.502 412.95 345.558C409.994 346.038 407.039 346.55 404.112 347.179C399.1 348.256 394.305 349.925 389.667 352.167C387.951 352.997 385.799 352.907 383.857 353.295C380.753 353.914 377.663 354.604 374.557 355.211C373.912 355.337 373.221 355.214 372.552 355.233C371.404 355.264 369.515 354.931 369.254 355.435C368.553 356.784 368.343 358.49 368.305 360.063C368.103 368.553 367.905 377.046 367.926 385.537C367.937 389.962 368.385 394.387 368.663 398.81C368.901 402.589 369.077 406.375 369.464 410.139C369.855 413.951 370.503 417.736 370.978 421.54C371.296 424.08 371.46 426.639 371.778 429.179C372.253 432.983 372.821 436.776 373.315 440.578C373.73 443.78 374.095 446.989 374.486 450.194C374.742 452.288 374.996 454.383 375.275 456.474C375.3 456.661 375.475 456.936 375.634 456.982C378.547 457.835 379.195 460.394 379.898 462.803C380.996 466.569 382.2 470.338 382.834 474.192C383.32 477.146 383.313 480.272 382.942 483.249C382.566 486.279 381.538 489.238 380.686 492.196C379.401 496.659 376.854 500.423 373.944 503.97C373.755 504.202 373.664 504.514 373.527 504.789C373.81 504.785 374.093 504.778 374.375 504.777C374.893 504.775 375.411 504.776 375.929 504.776H399.429C405.407 504.776 411.385 504.822 417.363 504.766C427.15 504.675 436.936 504.516 446.722 504.39C447.716 504.377 448.709 504.401 449.702 504.386C458.194 504.26 466.686 504.128 475.177 504.001C476.041 503.988 476.906 504.022 477.769 503.996C484.929 503.783 492.088 503.551 499.248 503.356C499.952 503.337 500.663 503.607 501.368 503.598C509.925 503.489 518.482 503.367 527.038 503.217C532.876 503.115 538.713 502.953 544.55 502.841C546.171 502.81 547.038 502.458 547.016 500.425C546.955 494.848 547.219 489.269 547.333 483.69C547.369 481.92 547.416 480.146 547.322 478.381C547.136 474.896 544.533 473.517 541.534 473.365C535.576 473.061 529.604 472.977 523.636 472.942C513.256 472.88 502.876 472.906 492.496 472.942C490.607 472.949 488.719 473.188 486.83 473.308C486.584 473.323 486.333 473.263 486.084 473.238C486.234 473.009 486.373 472.771 486.536 472.552C488.148 470.382 490.569 469.732 493.014 469.477C496.177 469.148 499.39 469.316 502.555 469.001C506.048 468.655 509.509 467.999 512.987 467.494C513.367 467.439 513.763 467.495 514.151 467.485C524.337 467.228 534.523 466.98 544.708 466.675C545.168 466.661 545.875 466.232 546.024 465.831C547.233 462.591 547.911 459.358 547.591 455.755C547.25 451.916 547.901 447.989 548.112 444.1C548.134 443.712 548.115 443.323 548.115 442.935C548.115 439.568 548.085 436.202 548.121 432.836C548.235 422.143 548.359 411.45 548.509 400.757C548.611 393.43 548.764 386.104 548.892 378.778C549.023 371.192 549.15 363.607 549.281 356.022C549.409 348.608 549.54 341.195 549.669 333.781L550.057 311.414C550.187 303.936 550.317 296.457 550.446 288.979C550.576 281.436 550.703 273.893 550.835 266.351C550.962 259.024 551.095 251.698 551.222 244.371C551.354 236.828 551.482 229.286 551.611 221.743C551.74 214.222 551.869 206.701 552 199.181C552.128 191.854 552.26 184.528 552.387 177.201C552.519 169.616 552.646 162.031 552.777 154.445L553.165 132.272C553.295 124.751 553.422 117.23 553.554 109.71C553.681 102.448 553.816 95.1863 553.941 87.9245C554.075 80.145 554.187 72.3651 554.335 64.5858C554.44 59.0494 554.563 53.5129 554.74 47.9784C554.777 46.8157 554.588 46.3539 553.244 46.3892C545.531 46.5917 537.815 46.6668 530.1 46.8193C525.211 46.9159 520.323 47.0765 515.434 47.2004C510.115 47.3351 504.795 47.4562 499.475 47.5913C494.609 47.7148 489.743 47.853 484.876 47.9774C479.621 48.1116 474.366 48.2343 469.112 48.3678C464.18 48.493 459.249 48.6298 454.318 48.7542C448.999 48.8885 443.679 49.0029 438.36 49.1474C434.269 49.2585 430.181 49.4258 426.091 49.5267C419.995 49.6772 413.898 49.7812 407.801 49.9238C402.935 50.0376 398.069 50.1849 393.202 50.3076C387.818 50.4434 382.433 50.5626 377.049 50.6991C372.247 50.8209 367.446 50.9619 362.644 51.0845C357.325 51.2203 352.005 51.333 346.685 51.4782C342.66 51.5881 338.636 51.7581 334.611 51.857C328.45 52.0084 322.288 52.1124 316.127 52.2542C311.131 52.3691 306.136 52.5128 301.14 52.6389C295.885 52.7716 290.63 52.8949 285.375 53.0292C280.509 53.1535 275.642 53.2924 270.776 53.4151C265.392 53.5508 260.008 53.7212 254.623 53.7955C243.024 53.9556 231.424 54.1917 219.826 54.1328C214.935 54.108 210.042 53.4768 205.162 53.0035C202.591 52.7541 200.043 52.2533 197.486 51.8582C197.312 51.8313 197.148 51.7389 196.98 51.677C197.14 51.6094 197.296 51.5236 197.463 51.4805C197.585 51.4491 197.721 51.477 197.85 51.474C203.364 51.3449 208.879 51.2551 214.391 51.0757C221.018 50.86 227.643 50.5762 234.268 50.3049C236.804 50.201 239.338 50.0231 241.876 49.9268C245.9 49.7741 249.925 49.6712 253.95 49.5292C257.198 49.4145 260.445 49.2654 263.694 49.1453C270.837 48.8812 277.981 48.6341 285.124 48.3627C287.855 48.2589 290.583 48.0771 293.314 47.9854C297.921 47.8307 302.529 47.7324 307.136 47.5857C310.514 47.4781 313.891 47.3215 317.269 47.204C321.293 47.0641 325.319 46.9537 329.343 46.8096C332.462 46.6979 335.579 46.5266 338.699 46.431C343.694 46.278 348.691 46.1766 353.686 46.0328C357.582 45.9207 361.477 45.7715 365.373 45.6494C369.721 45.5131 374.07 45.3889 378.418 45.2594C382.767 45.1299 387.115 44.9974 391.464 44.8718C396.071 44.7387 400.679 44.6139 405.286 44.482C409.722 44.355 414.157 44.2172 418.593 44.0958C423.588 43.959 428.584 43.8358 433.58 43.7055C438.511 43.5769 443.442 43.4441 448.374 43.318C453.564 43.1852 458.754 43.0595 463.944 42.9284C469.005 42.8006 474.067 42.7152 479.125 42.5256C482.986 42.3809 486.842 42.0878 490.702 41.9002C491.273 41.8724 491.856 42.1472 492.432 42.1392C500.406 42.0286 508.38 41.9052 516.354 41.7595C522.321 41.6504 528.288 41.4996 534.255 41.3764C540.804 41.2411 547.353 41.0716 553.904 41.0004ZM428.209 549.477C424.17 549.581 420.137 549.958 416.103 550.225C412.326 550.475 408.548 550.716 404.774 551.006C400.079 551.368 395.386 551.775 390.693 552.166C386.064 552.551 381.438 552.971 376.806 553.323C371.273 553.743 365.742 554.274 360.2 554.457C351.78 554.735 343.351 554.76 334.925 554.88C333.049 554.907 331.16 555.015 329.296 554.859C323.938 554.412 318.591 553.842 313.238 553.333C310.369 553.06 307.495 552.847 304.629 552.546C299.986 552.057 295.359 551.321 290.705 551.056C286.167 550.798 281.602 550.951 277.05 551.016C273.477 551.067 269.903 551.194 266.337 551.403C260.669 551.736 255.007 552.156 249.343 552.556C244.002 552.933 238.661 553.328 233.321 553.72C229.868 553.973 226.415 554.238 222.963 554.495C217.751 554.885 212.54 555.272 207.329 555.661C203.876 555.919 200.424 556.185 196.97 556.436C191.565 556.83 186.161 557.234 180.754 557.597C176.461 557.886 172.164 558.102 167.872 558.388C165.445 558.549 164.688 559.378 164.749 561.861C164.782 563.234 164.998 564.602 165.118 565.973C165.64 571.907 166.115 577.845 166.699 583.773C166.867 585.475 167.046 587.382 168.836 588.246C169.9 588.76 171.19 589.03 172.377 589.025C176.013 589.009 179.647 588.725 183.284 588.695C190.426 588.636 197.568 588.722 204.71 588.668C217.537 588.573 230.364 588.418 243.19 588.291C244.378 588.279 245.565 588.308 246.752 588.286C253.365 588.163 259.978 587.985 266.592 587.911C280.842 587.75 295.093 587.622 309.344 587.521C316.356 587.472 323.369 587.556 330.382 587.503C342.95 587.407 355.518 587.253 368.085 587.126C369.337 587.113 370.59 587.144 371.841 587.121C378.455 586.998 385.067 586.819 391.681 586.745C405.931 586.585 420.182 586.457 434.433 586.356C441.381 586.307 448.329 586.391 455.277 586.338C467.909 586.242 480.542 586.087 493.175 585.961C494.426 585.948 495.679 585.976 496.93 585.956C504.838 585.832 512.745 585.667 520.654 585.582C526.09 585.523 531.528 585.612 536.964 585.562C547.526 585.462 558.087 585.316 568.648 585.178C570.965 585.148 572.723 583.493 572.965 581.038C573.514 575.495 574.011 569.947 574.529 564.012C574.658 561.995 574.865 559.979 574.901 557.961C574.95 554.891 573.406 553.714 570.366 554.086C564.494 554.806 558.617 555.799 552.723 555.956C543.984 556.188 535.226 555.851 526.479 555.634C522.375 555.532 518.276 555.184 514.18 554.873C509.677 554.532 505.178 554.124 500.681 553.714C496.697 553.35 492.718 552.936 488.736 552.555L480.515 551.763C477.775 551.502 475.034 551.246 472.291 551.01C467.213 550.573 462.133 550.139 457.045 549.86C452.509 549.611 447.963 549.52 443.42 549.461C438.35 549.396 433.276 549.347 428.209 549.477ZM295.633 512.351C291.765 512.545 287.897 512.757 284.027 512.928C280.521 513.083 277.013 513.191 273.507 513.322C270.064 513.45 266.623 513.585 263.18 513.709C255.908 513.971 248.635 514.225 241.363 514.489C238.05 514.609 234.738 514.767 231.425 514.87C226.624 515.02 221.821 515.113 217.021 515.274C214.936 515.344 212.842 515.42 210.776 515.682C208.783 515.934 206.836 516.605 204.842 516.773C202.347 516.984 199.779 517.041 198.102 514.531C197.98 514.35 197.032 514.438 197.018 514.509C196.122 519.055 193.149 522.293 190.078 525.423C187.567 527.983 184.863 530.353 182.3 532.864C179.072 536.028 175.798 539.156 172.737 542.476C170.461 544.943 168.486 547.688 166.395 550.323C166.187 550.584 166.1 550.941 165.956 551.254C166.326 551.298 166.697 551.392 167.065 551.381C170.961 551.263 174.857 551.141 178.751 550.996C181.741 550.885 184.729 550.721 187.718 550.616C191.937 550.468 196.159 550.413 200.374 550.203C203.573 550.044 206.761 549.676 209.958 549.452C215.816 549.042 221.678 548.684 227.536 548.275C230.797 548.048 234.062 547.835 237.311 547.486C241.442 547.043 245.554 546.431 249.683 545.963C252.546 545.638 255.426 545.465 258.292 545.166C263 544.675 267.694 544.003 272.412 543.665C275.719 543.428 279.057 543.569 282.38 543.634C285.629 543.697 288.889 543.736 292.12 544.045C295.87 544.403 299.589 545.069 303.328 545.554C306.593 545.979 309.875 546.283 313.135 546.741C317.341 547.331 321.531 548.04 325.734 548.657C326.812 548.815 327.912 548.823 329.002 548.9C328.111 547.985 327.309 546.955 326.314 546.173C321.334 542.26 317.272 537.449 313.581 532.41C310.228 527.833 307.526 522.777 304.574 517.909C302.562 514.591 300.194 511.87 295.633 512.351ZM545.036 509.795C541.933 510.092 538.803 510.11 535.683 510.209C530.883 510.36 526.081 510.484 521.279 510.6C515.442 510.741 509.606 510.897 503.768 510.983C493.141 511.14 482.513 511.252 471.886 511.377C470.44 511.394 468.993 511.358 467.547 511.383C460.674 511.504 453.801 511.639 446.54 511.768H406.79C394.685 511.768 382.58 511.718 370.475 511.82C368.542 511.836 366.605 512.557 365.659 514.583C363.988 518.162 362.498 521.833 360.681 525.335C356.393 533.603 350.325 540.509 343.492 546.729C342.053 548.038 343.033 548.463 343.835 548.598C345.304 548.847 346.852 548.762 348.355 548.652C352.988 548.311 357.616 547.899 362.244 547.502C366.68 547.122 371.114 546.716 375.55 546.342C380.308 545.94 385.069 545.572 389.826 545.17C394.263 544.796 398.693 544.336 403.133 544.022C409.442 543.577 415.754 543.172 422.071 542.868C425.128 542.721 428.203 542.748 431.263 542.865C435.755 543.037 440.243 543.334 444.73 543.626C450.267 543.987 455.801 544.397 461.337 544.785C465.049 545.045 468.761 545.3 472.473 545.562C477.944 545.949 483.415 546.337 488.886 546.728C492.469 546.983 496.05 547.25 499.633 547.502C503.41 547.768 507.187 548.017 510.964 548.282C514.547 548.534 518.127 548.829 521.712 549.05C526.393 549.339 531.078 549.8 535.76 549.778C541.804 549.75 547.858 549.477 553.884 549.01C559.33 548.588 564.747 547.782 570.172 547.108C572.988 546.758 574.039 544.675 572.578 542.296C567.159 533.467 561.656 524.69 556.29 515.829C553.688 511.532 550.188 509.303 545.036 509.795ZM330.018 296.973C329.743 297.76 329.555 298.591 329.179 299.326C327.892 301.839 326.522 304.31 325.216 306.813C322.223 312.55 319.254 318.208 313.803 322.232C310.252 324.854 306.091 326.816 303.556 330.736C302.808 331.892 301.494 332.676 300.718 333.82C299.329 335.866 298.221 338.1 296.875 340.178C291.659 348.233 286.893 356.499 284.109 365.771C281.954 372.952 280.421 380.231 280.5 387.765C280.541 391.661 280.632 395.563 280.908 399.448C281.136 402.661 281.646 405.856 282.071 409.054C282.689 413.712 283.453 418.354 283.927 423.025C284.121 424.946 283.511 426.94 283.639 428.876C283.859 432.222 284.181 435.583 284.798 438.875C285.973 445.153 287.312 451.404 288.72 457.635C290.162 464.012 291.808 470.341 293.294 476.708C295.567 486.453 298.888 495.828 303.269 504.812C307.687 513.873 312.955 522.445 318.941 530.546C321.799 534.414 324.775 538.266 328.175 541.644C331.959 545.403 336.894 546.139 340.867 541.658C343.31 538.903 345.628 536.028 347.875 533.108C352.775 526.74 357.595 520.31 362.438 513.899C362.611 513.671 362.687 513.37 362.808 513.103C362.508 513.047 362.209 512.981 361.907 512.935C359.595 512.577 357.224 512.437 354.98 511.829C347.601 509.829 341.669 505.215 335.701 500.733C330.056 496.493 324.507 492.128 318.889 487.853C317.992 487.171 317.154 487.154 316.478 488.368C314.631 491.688 312.7 494.964 310.77 498.238C310.449 498.783 309.967 499.233 309.559 499.727C309.06 499.118 308.461 498.566 308.081 497.891C306.653 495.352 308.097 493.004 308.801 490.69C310.287 485.806 311.388 480.899 311.181 475.752C311.001 471.276 310.766 466.795 310.833 462.32C310.879 459.281 311.994 456.292 314.617 454.704C316.614 453.495 316.323 452.086 316.129 450.527C315.438 444.941 314.294 439.388 313.977 433.785C313.569 426.564 313.752 419.304 315.055 411.746C315.185 410.896 315.268 410.035 315.452 409.196C316.309 405.283 316.997 401.318 318.119 397.48C319.666 392.189 321.456 386.963 323.324 381.774C324.395 378.798 329.389 368.702 329.031 371.73C328.881 373.397 326.791 381.492 325.57 385.373C323.675 391.395 321.792 397.43 320.209 403.539C318.296 410.922 316.863 418.413 317.007 426.101C317.084 430.256 317.199 434.411 317.403 438.562C317.577 442.084 317.899 445.598 318.165 449.115C318.256 450.307 319.12 451.191 319.778 450.779C321.015 450.004 322.237 449.206 323.455 448.402C329.6 444.349 335.029 439.459 340.052 434.109C341.013 433.085 342.209 431.994 342.553 430.731C343.558 427.037 344.279 423.257 344.936 419.48C345.466 416.429 345.74 413.333 346.13 410.258C346.777 405.153 347.677 400.063 347.973 394.938C348.137 392.089 347.224 389.189 346.927 386.298C346.635 383.455 346.657 380.575 346.273 377.747C345.702 373.555 345.075 369.354 344.126 365.236C343.458 362.334 342.668 359.286 341.134 356.796C338.019 351.743 334.157 347.153 330.997 342.125C328.541 338.217 326.41 333.947 326.017 329.277C325.626 324.627 325.77 319.91 326.041 315.243C326.112 314.03 327.3 312.33 328.396 311.88C329.554 311.404 330.524 312.856 330.995 314.173C331.701 316.143 332.502 318.079 333.266 320.028C333.346 320.232 333.447 320.427 333.539 320.626C333.593 320.389 333.704 320.148 333.685 319.917C333.662 319.623 333.52 319.341 333.451 319.048C332.455 314.788 331.28 310.577 331.321 306.122C331.341 303.901 330.877 301.673 330.58 299.455C330.467 298.618 330.21 297.799 330.018 296.973ZM283.901 469.794C281.828 470.003 279.741 470.094 277.658 470.201C274.801 470.348 271.942 470.477 269.083 470.592C262.461 470.858 255.838 471.112 248.827 471.371C243.369 471.63 237.913 471.953 232.453 472.131C226.232 472.334 220.007 472.485 213.784 472.496C211.493 472.5 209.198 472.065 206.91 471.786C203.837 471.411 200.779 470.815 197.696 470.641C194.143 470.44 193.131 471.602 193.084 475.16C192.994 482.016 192.885 488.878 195.039 495.512C195.908 498.188 196.515 501.045 197.904 503.434C199.984 507.012 203.707 508.583 207.675 508.585C215.009 508.59 222.344 508.146 229.678 507.882C233.055 507.761 236.43 507.622 239.806 507.496C246.817 507.235 253.828 506.982 260.839 506.716C263.956 506.599 267.072 506.419 270.191 506.339C276.348 506.18 282.507 506.079 288.666 505.938L289.115 505.928C292.26 505.848 295.375 505.773 297.227 509.198C297.391 509.501 298.33 509.385 298.909 509.463C298.949 508.968 299.172 508.394 298.999 507.989C297.494 504.47 295.93 500.977 294.36 497.486C290.531 488.97 287.745 480.107 285.535 471.052C285.326 470.196 284.953 469.687 283.901 469.794ZM337.768 446.961C333.174 449.327 328.579 451.719 324.168 454.403C322.204 455.598 320.438 457.336 319.038 459.176C317.957 460.596 317.575 462.554 316.904 464.281C315.147 468.806 316.561 472.94 319.026 476.601C322.873 482.314 327.206 487.689 332.539 492.135C335.822 494.871 359.73 511.383 368.566 503.887C369.792 502.847 370.311 501.256 371.026 499.86C373.949 494.152 378.668 489.323 379.652 482.675C380.045 480.017 380.394 477.277 380.17 474.624C379.911 471.553 378.984 468.541 378.375 465.498C377.975 463.499 377.861 461.378 375.867 460.133C375.613 459.974 375.335 459.855 375.068 459.718C375.004 460.015 374.841 460.328 374.889 460.605C375.488 464.075 375.842 467.525 377.045 470.956C378.492 475.085 377.744 479.533 376.051 483.687C375.298 485.533 372.695 486.413 370.917 486.199C365.961 485.601 361.841 483.171 358.252 479.796C353.183 475.031 350.024 469.081 347.489 462.437C346.907 460.737 346.347 459.028 345.736 457.338C344.719 454.525 343.8 451.667 342.592 448.937C341.64 446.786 339.661 445.986 337.768 446.961ZM424.698 262.084C424.857 262.572 424.925 263.117 425.19 263.538C426.778 266.058 428.68 266.487 429.978 269.146C432.968 275.273 435.196 279.745 437.821 286.037C438.836 288.471 438.94 291.647 439.784 295.668C439.816 295.818 440.26 296.239 440.581 296.427C442.245 297.402 444.049 298.181 445.583 299.326C449.973 302.601 451.379 306.214 450.046 310.877C447.694 319.101 444.902 314.99 446.576 310.082C447.257 308.087 446.749 306.049 445.176 304.596C444.651 304.111 442.299 302.927 439.397 301.578C439.12 301.449 439.321 302.344 438.15 304.709C437.8 305.416 436.441 307.459 436.054 306.422C435.393 304.65 436.618 300.31 436.054 300.058L435.452 299.79C430.829 297.74 426.201 295.829 425.634 295.759C423.905 295.544 422.302 296.39 422.286 299.477C422.247 307.034 419.251 313.139 413.506 317.952C408.397 322.231 402.703 324.468 395.875 323.417C390.873 322.648 386.606 320.555 382.903 317.214C379.639 314.269 377.164 310.787 376.051 306.465C375.784 305.427 375.496 305.496 374.781 306.157C371.217 309.457 368.862 313.474 367.527 318.113C367.368 318.665 367.334 319.253 367.242 319.825C367.852 319.771 368.485 319.806 369.066 319.648C370.747 319.192 372.407 318.657 374.077 318.157C374.294 318.091 374.518 318.051 374.739 317.999C374.655 318.186 374.551 318.367 374.488 318.56C373.71 320.954 371.987 322.457 369.714 323.256C367.177 324.148 363.326 321.681 364.048 319.134C364.564 317.31 365.472 315.581 366.338 313.877C367.834 310.931 369.433 308.037 371.184 305.121C371.35 304.64 371.515 304.158 371.681 303.677C371.321 304.029 370.961 304.381 370.407 304.733C370.132 305.137 369.931 305.629 369.571 305.933C364.582 310.139 359.014 312.431 352.29 311.792C348.453 311.428 345.114 310.083 341.955 308.104C339.285 306.432 336.414 307.442 336.109 310.549C335.896 312.716 336.119 315.034 336.669 317.149C338.448 324.001 340.354 330.786 343.278 337.321C345.43 342.131 348.429 345.46 353.321 347.043C356.986 348.229 360.69 349.403 364.465 350.113C368.998 350.965 373.596 350.932 378.161 349.84C381.481 349.045 384.882 348.589 388.21 347.825C391.442 347.082 394.815 346.553 397.796 345.2C405.042 341.912 417.94 331.122 423.764 325.756C424.039 325.502 424.313 325.247 424.588 324.992C424.643 325.358 424.765 325.728 424.742 326.088C424.518 329.462 416.023 337.517 412.988 338.983C412.406 339.263 412.246 340.417 411.892 341.169C412.54 341.453 413.18 341.945 413.837 341.968C414.583 341.994 415.336 341.564 416.102 341.414C416.314 341.373 416.771 341.592 416.795 341.743C416.978 342.91 417.177 344.089 417.195 345.267C417.246 348.589 417.278 351.915 417.177 355.236C417.143 356.365 416.817 357.527 416.417 358.597C413.735 365.77 410.837 372.867 408.327 380.098C406.044 386.677 403.906 393.329 402.193 400.073C400.958 404.94 400.06 409.992 399.846 414.996C399.549 421.95 399.43 428.931 400.825 435.884C402.368 443.578 405.297 450.629 409.472 457.168C413.998 464.257 418.71 471.232 423.491 478.153C424.673 479.864 425.909 481.7 427.994 482.583C428.527 482.808 429.922 482.541 430.682 482.084C431.522 481.579 431.796 480.704 431.236 479.537C429.32 475.547 427.562 471.482 425.761 467.438C423.132 461.536 420.493 455.639 417.905 449.719C413.437 439.503 411.713 428.676 411.482 417.658C411.347 411.227 412.107 404.772 412.573 398.337C412.844 394.605 413.189 390.868 413.749 387.171C414.668 381.11 415.883 375.093 416.799 369.031C417.791 362.464 419.456 356.119 422.747 350.326C425.217 345.977 428.442 342.202 433.119 340.113C438.77 337.588 444.094 334.779 448.038 329.728C451.712 325.022 453.942 319.779 454.444 313.936C455.101 306.276 453.303 299.149 448.661 292.863C444.759 287.579 441.056 282.185 438.15 276.249C435.209 270.242 431.855 266.399 425.909 262.733C425.52 262.493 425.103 262.3 424.698 262.084ZM328.111 315.264C327.903 315.861 327.542 316.449 327.509 317.055C327.205 322.641 328.024 328.132 329.891 333.346C331.491 337.816 333.414 342.263 336.639 345.875C339.187 348.729 340.875 352.316 344.097 354.598C344.383 354.801 344.453 355.343 344.571 355.743C345.608 359.252 346.739 362.739 347.63 366.285L347.867 367.236C348.61 370.252 349.245 373.305 348.856 376.468C348.802 376.914 348.805 377.378 348.856 377.826C349.493 383.45 350.125 389.074 350.797 394.695C351.344 399.272 349.702 403.582 349.222 408.033C348.917 410.859 348.499 413.675 348.062 416.484C347.59 419.514 347.08 422.539 346.506 425.551C345.913 428.659 345.496 431.844 344.468 434.81C343.903 436.437 344.092 437.616 344.648 439.029C345.832 442.035 346.878 445.096 348.084 448.094C350.896 455.085 353.58 462.138 356.679 469.002C359.035 474.22 363.151 477.784 368.757 479.433C371.474 480.232 373.919 479.28 374.379 477.052C374.601 475.982 374.476 474.772 374.226 473.69C373.978 472.61 373.093 471.64 372.987 470.572C372.698 467.664 372.671 464.729 372.545 461.805C372.523 461.292 372.555 460.775 372.503 460.266C372.137 456.731 371.731 453.2 371.385 449.663C371.072 446.458 370.895 443.239 370.518 440.042C370.113 436.612 369.493 433.208 369.067 429.779C368.827 427.84 368.885 425.863 368.638 423.925C368.194 420.44 367.487 416.985 367.137 413.492C366.624 408.357 366.284 403.203 365.953 398.052C365.635 393.114 365.289 388.171 365.195 383.226C365.066 376.431 365.052 369.629 365.225 362.836C365.283 360.552 365.982 358.266 366.554 356.024C366.795 355.075 366.717 354.931 365.729 354.802C362.563 354.389 359.378 353.982 356.278 353.247C351.114 352.023 346.905 349.252 344.205 344.574C341.345 339.62 338.62 334.59 335.642 329.399C335.001 328.498 334.311 327.628 333.729 326.691C332.65 324.956 331.481 323.25 330.642 321.4C330.003 319.991 329.895 318.351 329.389 316.869C329.181 316.26 328.55 315.795 328.111 315.264ZM418.609 255.006C418.429 255.025 418.252 255.078 418.073 255.115C418.201 255.298 418.29 255.538 418.462 255.655C420.63 257.131 422.829 258.563 424.984 260.058C429.737 263.356 433.82 265.417 437.008 270.25C440.956 276.236 444.828 282.274 448.666 288.331C452.331 294.116 455.781 299.92 456.546 307.037C457.051 311.739 456.799 316.266 455.405 320.668C452.268 330.572 445.626 337.537 436.131 341.434C429.445 344.178 425.54 349.15 423.109 355.487C421.669 359.239 420.785 363.224 419.891 367.159C418.743 372.211 417.734 377.299 416.857 382.405C416.176 386.37 415.715 390.377 415.289 394.379C414.7 399.917 413.875 405.465 413.817 411.015C413.757 416.74 414.283 422.497 414.951 428.193C415.462 432.539 416.336 436.883 417.501 441.104C420.721 452.763 426.713 463.2 432.373 473.769C433.305 475.509 435.221 475.92 436.34 474.447C437.004 473.571 437.392 471.99 437.094 470.961C435.573 465.723 433.646 460.602 432.128 455.363C429.762 447.201 427.612 438.977 425.37 430.391C425.241 430.251 425.02 430.125 424.995 429.968C424.46 426.561 423.895 423.157 423.441 419.739C422.869 415.43 422.016 411.113 421.963 406.791C421.883 400.301 422.09 393.773 422.749 387.319C423.255 382.375 424.392 377.452 425.702 372.643C428.029 364.101 431.764 356.15 437.05 349.011C439.134 346.197 441.446 343.539 443.786 340.928C446.638 337.746 450.046 334.981 452.471 331.515C457.097 324.904 459.089 317.212 459.471 309.228C459.672 305.021 459.487 300.683 458.664 296.567C457.559 291.037 455.93 285.572 454.054 280.244C451.084 271.808 446.553 264.354 439.182 258.893C433.034 254.338 426.25 254.176 418.609 255.006ZM420.827 244.22C417.636 244.128 414.418 246.836 411.219 247.272C411.092 247.289 410.876 247.92 410.974 248.146C411.894 250.246 413.772 251.365 415.79 251.832C419.549 252.702 423.392 251.277 427.206 251.902C436.221 253.38 442.967 258.67 448.58 265.35C453.266 270.927 456.394 277.547 458.21 284.623C459.572 289.929 460.926 295.328 461.357 300.76C461.825 306.652 461.745 312.614 460.409 318.538C458.799 325.677 455.799 331.958 450.85 337.31C448.282 340.087 445.576 342.737 443.045 345.546C439.42 349.569 436.485 354.086 433.913 358.845C431.053 364.137 428.774 369.655 427.081 375.437C425.183 381.918 424.009 388.543 423.911 395.25C423.832 400.65 424.463 406.075 425.024 411.463C425.463 415.683 426.099 419.9 426.963 424.054C428.508 431.477 430.155 438.884 432.017 446.233C433.474 451.986 435.249 457.683 438.165 462.896C438.86 464.138 440.267 465.616 441.505 465.777C443.492 466.036 446.493 461.118 445.943 459.123C445.175 456.334 444.403 453.547 443.626 450.761C441.075 441.62 439.908 432.223 439.48 422.814C439.124 414.987 439.7 407.099 440.194 399.26C440.497 394.457 441.209 389.652 442.13 384.924C443.17 379.584 444.679 374.336 445.931 369.035C447.452 362.599 450.959 357.005 453.499 351.002C456.296 344.392 459.324 337.876 461.954 331.202C464.137 325.66 465.404 319.857 466.231 313.921C466.925 308.941 467.281 303.951 466.442 299.069C465.504 293.611 463.933 288.241 462.353 282.918C460.223 275.746 457.746 268.67 457.999 260.646C458.15 257.291 456.107 255.211 453.658 253.478C449.633 250.629 444.92 249.272 440.34 247.671C434.032 245.467 427.468 244.413 420.827 244.22ZM279.341 441.283C277.288 444.946 275.305 448.649 273.104 452.532C272.831 453.064 272.556 453.596 272.284 454.13C270.993 456.665 268.843 458.967 270.645 462.223C271.031 462.92 271.13 463.279 271.965 463.231C274.944 463.058 277.949 463.12 280.898 462.739C281.99 462.598 283.523 461.675 283.842 460.757C284.271 459.519 283.798 457.929 283.573 456.513C283.259 454.531 282.784 452.575 282.439 450.597C282.257 449.551 282.143 448.485 282.109 447.424C282.042 445.324 282.25 443.266 280.735 441.388C280.02 440.502 279.721 440.604 279.341 441.283ZM460.726 264.477C460.966 267.089 460.902 269.79 461.573 272.29C463.144 278.147 465.168 283.88 466.831 289.714C468.2 294.516 469.345 299.392 469.249 304.441C469.202 306.914 468.999 309.383 468.876 311.855C468.598 317.456 467.106 322.808 465.478 328.122C462.165 338.927 456.819 348.875 452.362 359.201C450.421 363.699 448.84 368.398 447.584 373.135C446.226 378.253 445.302 383.499 444.446 388.732C443.723 393.145 442.982 397.613 442.93 402.065C442.821 411.409 442.385 420.778 443.616 430.099C444.072 433.554 444.404 437.026 444.792 440.879C445.439 445.143 445.963 449.432 446.819 453.653C447.041 454.747 448.169 456.295 449.115 456.489C452.224 457.123 454.747 455.643 456.03 452.697C457.984 448.211 459.426 443.751 458.107 438.592C456.831 433.604 456.32 428.403 455.702 423.268C455.034 417.716 454.441 412.142 454.165 406.561C453.859 400.359 453.916 394.115 455.32 388.023C456.36 383.507 457.546 378.998 459.063 374.623C461.788 366.765 465.112 359.107 467.635 351.189C470.979 340.7 472.663 329.826 473.481 318.858C473.814 314.394 473.481 309.884 473.549 305.396C473.649 298.888 473.132 292.435 471.971 286.037C471.253 282.076 470.656 278.071 469.592 274.199C468.382 269.796 465.822 266.25 461.72 263.902C460.622 263.273 460.651 263.663 460.726 264.477ZM472.125 272.933C472.207 273.434 472.289 273.934 472.371 274.629C473.277 279.756 474.425 284.854 475.025 290.016C475.695 295.777 476.081 301.592 476.187 307.39C476.269 311.937 475.878 316.508 475.44 321.044C474.959 326.034 474.462 331.053 473.468 335.957C472.099 342.711 470.537 349.454 468.536 356.043C466.732 361.984 464.286 367.735 462.017 373.528C457.953 383.906 455.997 394.629 456.435 405.781C456.508 407.655 456.295 409.549 456.475 411.409C456.899 415.799 457.422 420.181 458.02 424.551C458.409 427.401 459.1 430.21 459.473 433.061C459.87 436.103 460.556 439.24 460.155 442.205C459.882 444.219 460.8 445.42 461.388 446.906C461.547 447.307 462.404 447.597 462.964 447.644C464.499 447.771 466.919 445.547 467.718 443.537C469.733 438.467 470.243 433.113 470.346 427.766C470.408 424.57 469.581 421.365 469.28 418.152C468.849 413.539 468.123 408.902 468.273 404.3C468.454 398.719 469.188 393.126 470.107 387.608C470.952 382.535 471.927 377.405 473.603 372.563C477.626 360.942 480.027 349.063 480.507 336.797C480.753 330.513 480.829 324.22 480.893 317.931C480.914 315.85 480.637 313.767 480.533 311.684C480.384 308.697 480.452 305.686 480.099 302.724C479.464 297.398 478.981 292.003 477.688 286.822C476.591 282.428 474.442 278.295 472.759 273.853C472.548 273.546 472.336 273.239 472.125 272.933ZM481.825 293.142C481.652 293.394 481.391 293.625 481.326 293.902C481.239 294.27 481.274 294.676 481.309 295.062C481.69 299.237 482.19 303.405 482.44 307.588C482.703 311.992 482.713 316.41 482.873 320.82C482.901 321.611 483.117 322.396 483.247 323.572C483.117 326.948 483.086 330.332 482.837 333.7C482.396 339.638 482.169 345.624 481.208 351.485C480.241 357.38 478.819 363.252 477.006 368.946C473.979 378.455 471.48 388.061 470.898 398.024C470.577 403.51 470.977 409.047 471.233 414.553C471.499 420.309 471.944 426.057 472.394 431.803C472.532 433.572 472.717 435.401 473.306 437.051C473.738 438.261 474.864 439.224 475.68 440.296C476.762 439.212 478.221 438.308 478.844 437.004C479.998 434.588 480.885 431.989 481.474 429.374C482.164 426.313 482.698 423.159 482.769 420.033C482.825 417.551 481.849 415.061 481.744 412.557C481.561 408.142 481.542 403.707 481.733 399.293C481.947 394.334 482.372 389.378 482.886 384.44C483.41 379.389 484.188 374.365 484.791 369.321L485.382 364.397C485.872 360.292 486.344 356.185 486.711 352.069C487.127 347.402 487.439 342.711 487.476 338.028C487.524 331.806 487.324 325.579 487.109 319.359C486.969 315.32 486.706 311.281 486.33 307.257C485.887 302.516 484.498 298.025 482.235 293.819C482.11 293.587 481.962 293.367 481.825 293.142ZM574.429 405.803C577.924 406.612 581.433 407.366 584.957 408.034C586.962 408.415 589.009 408.574 591.231 408.833C596.183 409.222 600.934 409.821 605.698 409.953C614.668 410.202 623.408 408.739 631.862 405.678C631.972 405.638 632.045 405.424 632.139 405.422C632.961 405.398 633.784 405.404 634.606 405.402C634.057 405.898 633.573 406.504 632.949 406.874C628.291 409.635 623.328 411.439 617.948 412.405C611.963 413.479 605.958 413.319 600.015 412.984C593.469 412.615 586.943 411.676 580.499 410.098C575.033 408.76 569.773 406.979 564.582 404.897C564.256 404.767 563.969 404.538 563.663 404.355C563.962 404.294 564.262 404.241 564.558 404.171C568.079 403.335 571.17 405.049 574.429 405.803ZM577.466 356.419C579.598 357.199 581.716 358.023 583.812 358.897C585.08 359.426 586.3 360.073 587.638 360.765C593.656 363.465 599.742 365.41 606.148 366.579C612.261 367.694 618.376 367.847 624.498 367.578C628.341 367.409 632.147 366.438 635.974 365.852C636.441 365.78 636.931 365.858 637.411 365.867C637.12 366.317 636.935 366.947 636.522 367.188C632.459 369.564 628.153 371.173 623.393 371.565C611.99 372.506 601.306 369.655 591.028 365.202C586.195 363.108 581.737 360.144 577.127 357.543C576.736 357.322 576.482 356.858 576.164 356.508C576.601 356.47 577.092 356.283 577.466 356.419ZM276.366 356.435C276.048 357.141 275.771 357.869 275.404 358.549C274.654 359.935 273.432 361.193 273.899 362.941C274.609 365.602 275.428 368.234 276.233 370.868C276.274 370.999 276.798 371.123 276.807 371.104C277.022 370.68 277.196 370.236 277.377 369.407C277.741 368.784 277.989 368.037 278.496 367.57C279.19 366.931 279.281 366.437 278.97 365.526C278.178 363.203 277.58 360.814 276.909 358.45C276.719 357.781 276.546 357.107 276.366 356.435ZM280.699 346.316C280.498 346.541 280.229 346.735 280.107 346.996C279.378 348.561 278.473 350.084 278.02 351.728C277.041 355.285 278.73 358.59 279.319 361.999C279.578 361.879 279.969 361.83 280.076 361.63C281.197 359.522 282.367 357.43 283.312 355.243C283.646 354.468 283.629 353.37 283.366 352.55C282.989 351.374 282.24 350.317 281.65 348.82C281.52 348.294 281.428 347.755 281.248 347.247C281.13 346.913 280.887 346.625 280.699 346.316ZM285.213 328.039C285.061 328.442 284.77 328.848 284.78 329.247C284.851 332.13 284.053 334.775 283.017 337.443C282.366 339.12 281.998 340.883 282.284 342.909C282.589 345.071 283.992 346.263 284.973 347.841C285.416 348.554 286.054 349.145 286.604 349.791C287.089 349.144 287.574 348.497 288.253 347.655C289.029 346.231 289.841 344.826 290.574 343.381C292.202 340.172 292.184 340.165 289.609 337.354C289.4 337.126 289.212 336.877 289.032 336.625C287.423 334.374 286.53 331.842 286.021 329.142C285.944 328.738 285.492 328.405 285.213 328.039ZM290.734 315.264C290.552 315.576 290.352 315.88 290.19 316.202C289.408 317.75 288.791 319.408 287.827 320.832C286.335 323.034 287.378 325.088 287.875 327.185C288.772 330.966 289.983 334.617 292.596 337.628C293.2 338.324 293.193 338.33 293.886 336.973C295.163 335.177 296.397 333.348 297.738 331.601C298.366 330.784 298.928 330.271 297.886 329.24C296.716 328.084 295.594 326.738 294.911 325.262C293.536 322.289 292.479 319.169 291.273 316.116C291.152 315.809 290.917 315.547 290.734 315.264ZM346.577 327.721C347.941 328.352 349.268 329.182 350.402 330.172C353.55 332.919 357.139 334.166 361.3 333.889C361.882 333.85 374.255 333.226 373.33 334.816C372.699 335.901 363.355 337.699 362.285 337.713C357.98 337.771 352.814 335.713 350.653 334.816C349.779 334.453 343.345 330.579 344.553 328.307C345.021 327.427 346.095 327.499 346.577 327.721ZM296.828 305.675C296.171 306.686 295.231 307.62 294.929 308.728C294.558 310.087 293.239 311.153 293.687 312.759C294.608 316.068 295.319 319.451 296.478 322.673C297.207 324.703 298.588 326.5 299.708 328.383C299.733 328.424 300.241 328.309 300.354 328.148C301.876 325.97 303.919 324.456 306.51 323.184C307.163 322.73 307.779 322.205 308.48 321.843C309.302 321.418 309.202 321.321 308.467 320.823C303.804 317.667 300.571 313.272 297.975 308.363C297.521 307.505 297.207 306.573 296.828 305.675ZM82.0995 267.922C82.2368 268.129 82.3605 268.346 82.5134 268.541C86.3097 273.377 90.1103 278.211 93.906 283.048C94.2866 283.533 94.641 284.038 95.1046 284.632C98.9092 288.566 102.445 292.589 106.368 296.191C111.124 300.558 116.189 304.592 121.156 308.727C124.732 311.703 128.304 314.767 132.741 316.375C135.566 317.399 138.527 318.385 141.49 318.628C148.091 319.17 154.738 319.131 161.352 319.556C163.359 319.685 165.326 320.529 167.289 321.12C167.579 321.207 168.41 321.672 167.136 321.86C163.441 322.406 159.787 323.257 156.084 323.715C153.83 323.993 151.514 323.794 149.227 323.761C143.34 323.674 137.78 322.167 132.355 319.962C125.443 317.153 119.254 313.211 113.712 308.26C109.905 304.86 105.933 301.578 102.55 297.783C96.5105 291.007 90.7554 283.967 85.109 276.857C83.291 274.568 82.1261 271.732 82.0009 268.655C81.991 268.412 82.0647 268.166 82.0995 267.922ZM302.513 295.752C300.795 297.918 298.593 299.955 299.174 303.068C299.591 305.301 300.381 307.47 301.08 309.644C302.595 314.353 306.481 317.004 310.114 319.852C310.307 320.004 310.975 319.849 311.2 319.619C314.241 316.507 317.242 313.357 320.254 310.217C320.831 309.615 321.644 309.094 319.914 308.954C318.75 308.86 317.631 308.256 316.481 307.913C315.04 307.483 313.589 307.086 311.753 306.675C310.397 305.448 309.157 304.049 307.658 303.032C305.107 301.303 303.529 299.056 302.994 296.037C302.972 295.911 302.532 295.728 302.513 295.752ZM396.465 282.604L395.138 283.048C391.745 284.183 388.379 285.39 385.657 287.919C382.532 290.821 380.931 294.552 379.95 298.562C379.752 299.373 379.614 300.178 379.54 300.974C379.609 300.676 379.699 300.387 379.796 300.123C380.057 299.407 380.714 298.819 381.252 298.224L381.469 297.987C382.526 296.854 383.661 295.99 385.365 297.1C387.242 298.322 386.413 299.845 385.889 301.333C385.711 301.835 385.444 302.306 385.121 302.888C384.247 304.334 383.051 305.12 381.559 304.665C380.75 304.419 379.848 303.601 379.543 302.823C379.519 302.761 379.499 302.698 379.481 302.633C379.544 305.364 380.426 307.95 382.301 310.239C383.939 312.241 385.939 313.988 387.955 315.632C392.834 319.612 398.312 320.311 403.86 317.423C410.929 313.742 414.447 307.074 417.602 299.878C417.799 298.263 418.247 296.631 418.142 295.036C417.935 291.907 415.918 289.692 413.65 287.803C408.675 283.659 403.397 280.278 396.465 282.604ZM309.803 281.435C309.353 281.959 308.871 282.461 308.465 283.017C308.261 283.296 308.168 283.668 308.067 284.01C307.154 287.122 306.057 290.196 305.415 293.363C305.012 295.349 305.532 297.413 306.898 299.489C308.445 300.59 309.989 301.695 311.539 302.79C314.666 304.999 318.357 305.708 321.958 306.627C322.251 306.702 322.957 306.171 323.067 305.801C324.073 302.441 324.992 299.055 325.908 295.67C325.926 295.603 325.61 295.361 325.432 295.337C322.262 294.917 319.125 294.736 316.44 292.432C313.505 289.912 311.704 286.813 310.398 283.304C310.171 282.692 310 282.059 309.803 281.435ZM346.436 267.813C342.678 268.44 340.207 271.189 338.048 274.161C335.406 277.799 333.914 281.913 333.769 286.345C333.648 290.02 334.695 293.557 336.401 296.876L336.672 297.404C337.708 299.42 338.76 301.344 340.996 302.424C346.538 305.098 352.346 305.991 358.387 305.071C360.194 304.796 362.309 304.371 363.595 303.236C368.526 298.886 371.255 293.285 371.961 286.477C371.896 285.004 371.918 283.52 371.75 282.059C371.249 277.697 368.957 274.378 365.573 271.712C362.599 269.368 359.119 268.025 355.482 267.543C352.523 267.15 349.394 267.32 346.436 267.813ZM355.847 240.062C353.833 246.132 351.831 252.205 349.861 258.289C350.299 258.201 350.764 258.027 351.128 258.151C353.318 258.893 355.424 259.783 357.136 261.459C358.099 262.402 359.277 263.125 360.455 264.045C360.705 264.257 360.952 264.457 361.192 264.651C361.338 264.689 361.482 264.729 361.626 264.77C366.035 266.019 369.839 268.35 372.546 272.204C376.165 277.358 377.044 283.373 377.981 289.373C378.028 289.678 378.065 289.985 378.106 290.292C378.419 290.155 378.782 290.079 379.033 289.868C379.527 289.454 379.964 288.971 380.416 288.507C383.948 284.885 387.909 281.781 392.472 279.63C397.321 277.344 402.312 276.778 407.561 278.866C411.503 280.434 414.667 282.952 417.746 285.676C419.088 286.864 425.399 289.872 436.679 294.702C434.835 286.912 432.935 281.315 430.978 277.91C428.514 273.623 425.735 270.348 422.271 267.144C416.219 261.547 409.89 256.404 402.864 252.06C395.471 247.489 387.484 244.456 379.164 242.225C373.318 240.658 367.393 239.385 361.51 237.951C358.94 237.325 356.468 238.189 355.847 240.062ZM317.451 274.072C314.362 276.167 311.897 279.739 313.3 284.138C314.855 289.014 320.354 293.228 325.573 293.415C326.067 293.433 326.826 292.811 327.051 292.304C327.68 290.886 328.125 289.382 328.561 287.888C328.644 287.603 328.359 286.911 328.233 286.908C324.923 286.836 322.807 284.716 320.493 282.398C319 279.954 317.978 277.374 318.131 274.434C318.137 274.317 317.558 274 317.451 274.072ZM155.387 279.305C157.103 280.159 158.812 281.04 160.455 282.027C163.872 284.08 167.175 286.336 170.665 288.251C172.526 289.273 174.689 289.739 176.698 290.501C177.141 290.669 177.51 291.033 177.913 291.307C177.497 291.509 177.009 291.631 176.678 291.928C174.264 294.089 171.993 292.09 169.739 291.624C165.082 290.661 161.828 287.467 158.614 284.049C157.201 282.765 155.863 281.601 154.585 280.377C154.278 280.083 154.164 279.587 153.962 279.184C154.441 279.216 154.99 279.107 155.387 279.305ZM340.093 282.865C341.729 283.558 341.585 284.872 341.497 286.146C341.351 288.256 338.477 291.014 336.638 290.674C335.982 290.553 334.996 289.557 335.011 288.983C335.051 287.493 335.563 286.016 335.984 284.437C336.264 284.157 336.449 283.977 336.629 283.791C337.598 282.792 338.591 282.229 340.093 282.865ZM323.018 268.22C322.435 269.076 321.635 269.856 321.307 270.8C319.701 275.427 322.635 282.644 328.749 284.401C329.041 284.485 329.693 284.221 329.78 283.977C330.743 281.275 331.634 278.548 332.522 275.82C332.579 275.647 332.461 275.238 332.42 275.237C327.87 275.174 325.659 272.375 324.338 268.456C324.256 268.213 323.601 268.165 323.018 268.22ZM402.922 276.616C403.309 276.821 403.629 277.152 403.981 277.425C403.6 277.335 403.223 277.221 402.837 277.158C398.857 276.505 394.873 275.875 390.898 275.194C390.343 275.099 389.829 274.762 389.297 274.537C389.879 274.374 390.462 274.21 391.239 274.047C395.473 273.966 399.33 274.71 402.922 276.616ZM332.706 256.202C332.26 256.858 331.808 257.509 331.377 258.174C331.319 258.265 331.416 258.452 331.363 258.553C330.128 260.885 328.941 263.246 327.618 265.527C326.877 266.803 326.835 269.304 327.94 269.979C329.517 270.942 331.233 271.682 332.903 272.488C334.013 273.023 334.683 272.344 335.243 271.526C336.308 269.968 337.284 268.345 338.417 266.84C339.303 265.663 338.428 265.908 337.584 265.695C333.556 264.688 333.093 261.319 332.556 258.033C332.461 257.447 332.649 256.814 332.706 256.202ZM339.296 246.892C338.726 247.355 337.942 247.702 337.62 248.299C335.833 251.607 335.167 255.225 335.292 258.935C335.389 261.839 337.174 263.82 339.984 264.565C340.373 264.668 340.926 264.512 341.288 264.289C342.224 263.713 343.096 263.032 344.188 262.2C344.576 261.521 345.071 260.88 345.327 260.155C345.688 259.136 345.921 258.063 346.102 256.995C346.166 256.621 346.046 256.013 345.783 255.818C343.18 253.887 341.244 251.441 339.919 248.499C339.683 247.976 339.502 247.429 339.296 246.892ZM349.81 258.453L349.011 260.92C348.923 261.194 349.303 261.902 349.57 261.966C351.941 262.535 354.335 263.019 356.715 263.55C355.406 262.585 354.098 261.617 352.784 260.657C352.1 260.157 351.339 259.764 350.65 259.27C350.336 259.046 350.081 258.739 349.81 258.453ZM351.067 230.097C349.712 231.242 348.419 232.461 346.907 233.844C344.357 235.804 343.311 238.613 342.675 241.593C341.828 245.559 342.247 249.238 345.433 252.198C346.512 253.201 347.221 252.775 347.668 251.678C349.042 248.303 350.349 244.9 351.675 241.504C353.066 237.94 353.849 234.389 352.419 230.564C351.979 229.391 351.658 229.598 351.067 230.097ZM399.579 233.718C397.887 234.098 395.963 236.692 395.278 238.704C394.977 239.588 394.534 240.271 396.251 240.741C400.012 241.771 403.602 243.414 406.92 246.069C407.666 246.1 408.437 246.266 409.155 246.136C411.85 245.648 414.517 242.758 417.215 242.675C420.85 242.565 424.532 242.903 428.141 243.416C431.866 243.945 435.624 244.617 439.195 245.764C443.91 247.279 448.457 249.318 453.078 251.125C453.386 251.246 453.714 251.313 454.033 251.404C453.95 251.138 453.824 250.876 453.791 250.603C453.573 248.806 452.37 247.681 450.957 246.883C446.929 244.607 442.908 242.294 438.744 240.289C431.775 236.934 424.577 234.32 416.824 233.177C410.98 232.315 405.266 232.44 399.579 233.718ZM395.464 223.555C389.73 223.795 384.915 225.965 381.314 230.526C379.572 232.734 379.963 235.958 382.616 236.733C385.911 237.697 389.236 238.56 392.936 239.466C393.714 238.301 394.255 234.883 395.315 234.099C398.274 231.913 401.792 231.022 405.433 230.968C408.612 230.92 411.822 230.977 414.969 231.374C418.717 231.847 422.486 232.47 426.115 233.492C434.108 235.744 441.54 239.379 448.805 243.357C449.246 243.598 449.715 243.788 450.172 244.001C450.165 243.309 450.242 242.6 450.115 241.93C450.056 241.615 449.641 241.315 449.323 241.109C446.468 239.264 443.726 237.19 440.707 235.664C434.405 232.48 427.975 229.581 421.137 227.623C412.73 225.215 404.294 223.185 395.464 223.555ZM383.555 210.297C377.182 210.997 371.624 213.129 367.338 218.069C364.854 220.931 363.371 224.195 363.221 228.406C363.221 228.989 363.103 231.536 363.251 232.08C363.435 232.76 363.73 233.847 364.165 233.948C366.086 234.392 368.072 234.587 370.043 234.759C370.331 234.784 370.903 234.229 370.95 233.888C371.163 232.333 371.003 228.765 371.401 227.27C372.938 221.485 377.089 218.162 382.464 216.187C386.98 214.527 391.677 214.495 396.447 214.547C403.528 214.624 410.444 215.646 417.251 217.394C420.009 218.103 422.606 219.446 425.254 220.555C425.596 220.699 425.801 221.172 426.069 221.492C425.672 221.432 425.256 221.432 424.883 221.303C415.88 218.195 406.566 216.738 397.1 216.193C392.458 215.925 387.802 216.405 383.397 217.799C378.529 219.339 374.438 222.099 372.778 227.387C371.881 230.24 373.17 234.696 375.954 235.725C377.58 236.325 378.163 235.571 378.796 234.247C379.601 232.564 380.451 228.875 381.679 227.507C385.55 223.195 390.785 221.766 396.301 221.691C399.953 221.642 403.66 222.151 407.265 222.828C412.687 223.846 418.131 224.929 423.401 226.528C431.284 228.921 438.818 232.231 445.773 236.74C446.271 237.063 446.921 237.152 447.501 237.35C447.324 236.778 447.216 236.175 446.962 235.64C443.798 229.001 439.937 222.845 434.329 217.962C431.041 215.1 427.294 212.97 423.049 211.933C419.97 211.18 416.865 210.993 413.621 211.399C410.567 211.782 407.397 211.271 404.28 211.111C402.778 211.035 401.268 210.941 399.782 210.718C394.387 209.907 389.009 209.698 383.555 210.297ZM361.458 222.385C361.239 222.48 360.991 222.536 360.805 222.675C359.671 223.529 358.654 224.618 357.401 225.219C355.373 226.191 355.737 227.733 356.011 229.348C356.051 229.581 356.206 229.8 356.221 230.031C356.299 231.231 356.349 232.433 356.408 233.635C356.679 235.318 358.749 235.318 360.113 234.999C360.372 234.009 360.738 233.034 360.869 232.027C361.173 229.682 361.368 225.39 361.59 223.035C361.61 222.824 361.505 222.602 361.458 222.385ZM286.693 113.955C287.052 114.39 286.78 115.388 286.702 116.129C286.652 116.6 286.302 117.064 286.333 117.514C286.687 122.728 287.222 127.933 287.436 133.152C287.627 137.805 287.468 142.472 287.486 147.132C287.488 147.745 287.557 148.872 287.703 148.89C288.848 149.031 290.02 148.977 291.18 148.917C291.255 148.913 291.377 148.35 291.346 148.06C291.257 147.203 291.063 146.357 290.978 145.5C290.448 140.149 289.766 134.806 289.471 129.441C289.219 124.859 289.331 120.249 289.511 115.66C289.538 114.957 290.748 113.815 291.494 113.744C292.485 113.648 293.056 114.633 292.947 115.871C292.811 117.413 292.799 118.985 292.935 120.527C293.398 125.754 293.942 147.431 294.123 148.719C294.141 148.847 294.768 148.96 295.112 148.961C304.628 148.974 314.144 149.048 323.658 148.936C327.89 148.886 332.116 148.435 336.347 148.201C339.269 148.039 342.21 148.081 345.116 147.778C353.223 146.933 361.342 146.618 369.492 146.576C373.605 146.556 377.71 145.807 381.827 145.489C387.552 145.046 393.28 144.566 399.016 144.344C406.012 144.072 413.018 144.027 420.02 143.947C421.089 143.934 421.58 143.872 421.523 142.553C421.302 137.368 421.242 132.175 421.092 126.987C420.99 123.415 420.855 119.843 420.699 116.273C420.654 115.244 420.956 114.76 422.091 114.76C423.268 114.76 423.424 115.334 423.447 116.317C423.528 119.76 423.3 123.271 423.907 126.627C424.816 131.645 424.44 136.65 424.596 141.662C424.655 143.578 425.555 144.288 427.371 143.928C428.216 143.761 429.074 143.551 429.927 143.55C447.663 143.528 465.399 143.501 483.135 143.551C489.037 143.567 504.598 143.773 510.499 143.935C512.066 143.978 513.632 144.149 515.192 144.318C516.842 144.497 518.134 146.2 518.148 148.231C518.173 151.726 518.155 155.222 518.155 158.717C518.155 159.041 518.139 159.365 518.158 159.688C518.217 160.645 518.671 162.19 518.283 162.441C517.327 163.058 515.994 163.261 514.799 163.314C507.529 163.632 490.598 163.938 483.324 164.101C473.993 164.31 464.66 164.392 455.328 164.505C443.471 164.648 431.614 164.746 419.758 164.907C414.956 164.973 410.155 165.146 405.355 165.289C401.524 165.402 397.695 165.561 393.864 165.67C388.675 165.816 383.485 165.946 378.296 166.059C371.747 166.202 365.198 166.315 358.649 166.452C352.877 166.573 347.105 166.71 341.333 166.839C335.561 166.969 329.787 167.043 324.018 167.244C318.814 167.425 313.614 167.713 308.416 168.016C305.024 168.214 301.631 168.445 298.253 168.801C294.122 169.236 290.011 169.86 285.882 170.32C282.891 170.654 279.889 170.944 276.884 171.093C270.456 171.413 264.019 171.548 257.595 171.92C253.798 172.139 230.703 172.726 226.908 173.019C225.684 173.113 224.404 172.898 223.199 172.615C222.71 172.501 222.057 171.875 221.982 171.402C221.614 169.067 221.382 166.708 221.166 164.351C220.987 162.403 220.763 160.443 220.811 158.495C220.847 157.021 221.252 155.61 220.921 154.055C220.823 153.598 222.502 152.311 223.484 152.16C226.579 151.681 249.058 151.632 252.177 151.284C256.115 150.844 260.037 150.268 263.968 149.763C264.349 149.714 264.742 149.763 265.129 149.746C271.106 149.49 277.082 149.194 283.062 149.006C284.091 148.973 283.992 148.505 283.988 147.835C283.97 145.246 283.93 142.656 283.995 140.068C284.058 137.531 284.239 134.998 284.369 132.269C283.866 128.464 283.267 124.863 282.896 121.239C282.68 119.129 282.709 116.972 282.894 114.859C282.945 114.275 283.879 113.479 284.539 113.318C285.198 113.158 286.282 113.457 286.693 113.955ZM483.841 146.275C465.254 146.347 446.666 146.491 428.079 146.649C418.618 146.73 409.154 146.797 399.698 147.073C395.126 147.206 390.571 147.837 386.004 148.186C380.471 148.609 374.935 148.974 369.399 149.358C367.382 149.498 365.364 149.615 363.347 149.749C357.488 150.135 351.634 150.627 345.77 150.885C339.874 151.144 333.969 151.172 327.679 151.302C326.18 151.431 324.681 151.656 323.18 151.675C310.872 151.831 298.562 151.89 286.254 152.107C281.051 152.198 275.853 152.592 270.653 152.858C268.376 152.974 266.096 153.066 263.825 153.253C257.888 153.743 232.636 154.294 226.699 154.787C225.298 154.903 224.494 155.252 224.61 156.976C224.871 160.862 224.971 164.762 225.002 168.658C225.012 169.801 225.329 170.054 226.39 169.964C229.969 169.66 252.873 169.425 256.456 169.171C260.167 168.907 263.876 168.616 267.591 168.401C272.659 168.108 277.732 167.886 282.802 167.604C283.53 167.563 284.244 167.326 284.972 167.233C288.111 166.832 291.247 166.404 294.393 166.075C297.451 165.756 300.517 165.492 303.585 165.296C310.218 164.873 316.852 164.423 323.492 164.145C329.452 163.896 335.422 163.864 341.388 163.731C346.965 163.606 352.543 163.463 358.12 163.346C364.733 163.206 371.346 163.068 377.96 162.959C386.838 162.813 395.717 162.717 404.595 162.558C409.008 162.479 413.42 162.315 417.832 162.176C421.598 162.057 425.362 161.871 429.128 161.799C437.488 161.639 445.849 161.521 454.21 161.403C464.124 161.264 474.039 161.204 483.951 160.991C490.901 160.842 507.508 160.507 514.454 160.2C514.793 160.185 515.387 159.654 515.393 159.354C515.461 156.055 515.434 152.753 515.437 149.452C515.44 148.053 514.631 147.264 513.369 147.056C511.888 146.812 510.376 146.701 508.874 146.653C503.751 146.491 488.965 146.255 483.841 146.275ZM430.056 111.894C430.525 118.658 431.015 125.422 431.615 132.176C431.81 134.358 432.304 136.52 432.762 138.669C433.158 140.528 432.063 141.832 429.74 141.882C429.255 140.461 428.696 139.159 428.513 137.807C428.136 135.023 427.832 132.218 427.727 129.413C427.51 123.592 427.44 117.766 427.315 111.943C427.296 111.055 427.121 110.147 428.551 110.096C429.984 110.046 429.982 110.817 430.056 111.894Z" fill="#00160A"/>
<path fill-rule="evenodd" clip-rule="evenodd" d="M486.405 403.395C487.302 407.728 488.085 411.869 487.993 416.149C487.938 418.68 488.19 421.22 488.353 423.753C488.817 430.959 485.495 436.017 479.665 439.928C475.666 442.612 472.053 445.866 468.101 448.628C464.78 450.949 461.296 453.064 457.75 455.027C450.582 458.995 443.239 462.711 439.981 470.995C438.47 474.835 436.464 478.585 435.662 482.573C434.737 487.179 435.583 491.76 439.821 494.906C439.967 495.015 440.037 495.23 440.186 495.33C440.844 495.772 441.553 496.559 442.175 496.5C442.656 496.455 443.103 495.373 443.447 494.693C444.213 493.173 443.512 491.831 443.167 490.301C442.646 487.987 443.054 485.458 443.123 483.022C443.131 482.758 443.508 482.505 443.713 482.247C443.831 482.555 444.024 482.857 444.053 483.174C444.21 484.865 444.167 486.593 444.507 488.243C444.755 489.444 445.367 490.623 446.042 491.666C446.742 492.746 449.098 492.231 449.484 490.924C450.198 488.506 450.073 486.076 449.552 483.603C449.289 482.35 449.501 480.99 449.578 479.682C449.59 479.488 450.043 479.32 450.292 479.139C450.418 479.375 450.622 479.625 450.65 479.844C451.804 488.78 453.493 488.78 454.186 489.043C454.879 489.307 455.766 488.951 456.089 488.78C456.496 488.563 456.801 487.851 456.854 487.322C457.058 485.312 456.814 483.197 457.355 481.297C458.053 478.846 459.115 476.422 460.461 474.262C461.355 472.829 462.989 471.839 464.348 470.718C467.882 467.804 471.552 465.093 476.006 463.716C479.165 462.74 482.349 461.845 485.51 460.878C490.966 459.211 496.522 457.799 501.84 455.768C510.134 452.601 516.314 447.106 518.198 438.024C519.231 433.043 518.436 428.023 516.556 423.334C515.066 419.619 513.043 416.118 511.273 412.514C511.093 412.148 511.024 411.727 510.903 411.331C511.223 411.54 511.599 411.695 511.856 411.965C516.371 416.7 519.358 422.313 520.739 428.658C522.218 435.457 522.696 442.336 519.352 448.797C518.619 450.214 517.124 451.355 515.759 452.303C511.638 455.163 507.034 457.093 502.321 458.742C496.836 460.662 491.439 463.08 485.789 464.214C480.338 465.307 475.612 467.828 470.596 469.806C467.515 471.022 465.838 473.85 463.423 475.813C460.875 477.885 460.142 480.423 460.37 483.484C460.437 484.385 460.344 485.297 460.386 486.201C460.655 492.017 457.766 492.542 453.387 490.816C453.198 490.741 452.658 490.99 452.643 491.129C452.281 494.408 450.409 496.014 447.416 494.944C446.128 494.483 446.193 495.349 446.067 495.652C444.75 498.804 441.527 499.824 439.316 497.386C437.022 494.856 434.893 492.055 433.325 489.043C432.547 487.549 432.906 485.262 433.253 483.428C433.846 480.295 434.648 477.172 435.702 474.164C437.098 470.181 439.386 466.699 442.045 463.372C444.758 459.977 448.142 457.544 451.804 455.491C456.832 452.672 461.785 449.749 466.468 446.397C468.386 445.023 470.015 443.25 471.902 441.827C474.393 439.948 477.011 438.239 479.568 436.449C483.057 434.006 485.444 431.085 485.328 426.404C485.251 423.276 486.268 420.132 486.334 416.985C486.4 413.863 485.848 410.732 485.645 407.599C485.547 406.095 485.617 404.579 485.639 403.068C485.643 402.8 485.782 402.533 485.859 402.266C486.041 402.577 486.223 402.889 486.405 403.395Z" fill="#00160A"/>
<path fill-rule="evenodd" clip-rule="evenodd" d="M31.3086 140.507C31.4916 140.108 31.8336 139.721 31.8351 139.722C35.8287 143.225 38.3521 147.586 39.9442 152.663C40.6296 154.849 42.1412 156.846 43.5579 158.717C46.2302 162.245 49.1138 165.613 51.8669 169.082C51.9758 169.219 51.7397 169.862 51.5047 170.003C49.9258 170.951 47.1044 170.446 45.4052 168.731C43.9551 167.267 42.6806 165.62 41.4097 163.99C39.5024 161.545 36.8315 160.58 33.9613 159.925C29.3968 158.884 25.9978 156.079 23.1647 152.54C18.3854 146.569 16.3857 139.502 15.4026 132.081C15.1647 130.286 14.7905 128.379 15.147 126.662C15.8834 123.114 19.054 121.174 23.0222 122.338C30.1435 124.428 37.2286 126.755 44.0962 129.554C48.5603 131.373 50.3411 135.584 51.1738 140.265C51.877 144.218 51.0017 147.782 49.4403 151.294C48.8997 152.509 48.8045 152.464 48.0075 151.325C46.4517 149.1 46.0573 146.478 46.5384 144.022C47.5956 138.625 45.1596 134.368 40.8647 132.753C35.8793 130.879 30.9082 128.936 25.8289 127.35C20.8017 125.781 20.8713 126.12 21.8 130.994C23.0592 137.603 25.4753 144.044 27.9202 150.354C29.2239 153.718 31.9188 156.246 35.7361 157.268C37.0934 157.632 36.907 156.871 36.7135 156.323C35.7986 153.729 34.8253 151.153 33.763 148.617C32.6886 146.051 31.1729 143.637 31.3086 140.507Z" fill="#FFB61D"/>
<path fill-rule="evenodd" clip-rule="evenodd" d="M497.96 397.278C492.986 395.742 488.314 396.432 483.652 398.273C482.558 398.705 481.026 398.457 479.849 398.062C479.306 397.88 481.009 394.968 482.375 394.448C483.996 393.832 485.663 393.154 487.363 392.956C492.543 392.352 497.344 393.733 501.904 396.152C503.909 397.216 506.026 398.071 508.019 399.154C508.873 399.617 509.58 400.384 510.273 401.092C510.465 401.289 510.507 401.994 510.378 402.073C510.058 402.269 509.534 402.401 509.205 402.271C507.153 401.458 505.124 400.584 503.104 399.694C501.41 398.947 499.739 398.15 497.96 397.278Z" fill="#00160A"/>
<path fill-rule="evenodd" clip-rule="evenodd" d="M344.53 121.296C341.161 123.629 337.971 125.999 334.595 128.066C330.911 130.322 327.079 132.344 323.246 134.344C322.698 134.63 321.361 134.46 321.13 134.066C320.728 133.38 320.58 132.437 321.871 131.825C324.149 130.747 326.318 129.409 328.438 128.035C331.71 125.915 334.892 123.656 338.134 121.489C339.897 120.31 341.628 119.036 343.531 118.14C344.308 117.774 346.102 117.96 346.393 118.479C347.265 120.03 345.908 120.713 344.53 121.296Z" fill="#E7EAEE"/>
<path fill-rule="evenodd" clip-rule="evenodd" d="M368.612 364.843C369.745 363.838 370.768 362.915 371.825 362.034C372.134 361.776 372.542 361.637 372.904 361.444C373.06 361.78 373.306 362.102 373.356 362.452C373.689 364.77 373.731 367.229 375.882 368.768C376.796 369.422 377.865 370.103 378.935 370.248C382.911 370.787 387.613 370.378 390.33 366.117C391.431 364.39 391.092 362.633 391.267 360.857C391.313 360.388 391.631 359.635 391.955 359.558C393.263 359.247 392.802 360.361 392.765 360.898C392.617 363.039 393.164 365.152 391.713 367.27C389.96 369.831 387.65 371.464 384.854 371.811C382.114 372.151 379.224 372.35 376.436 371.202C373.94 370.175 372.742 368.367 372.201 365.902C372.129 365.574 371.994 365.26 371.888 364.94C371.633 365.106 371.38 365.275 371.124 365.438C368.418 367.165 365.847 369.244 362.401 369.167C361.907 369.156 361.427 368.534 360.941 368.195C361.382 368.017 361.828 367.847 362.265 367.658C364.349 366.755 366.432 365.846 368.612 364.843Z" fill="#00160A"/>
<path fill-rule="evenodd" clip-rule="evenodd" d="M450.961 122.46C453.226 120.454 455.348 118.485 457.595 116.673C458.197 116.188 459.177 116.058 459.998 116.01C460.366 115.988 461.085 116.565 461.089 116.878C461.097 117.473 460.872 118.266 460.447 118.635C459.442 119.506 458.18 120.081 457.168 120.947C453.862 123.777 450.662 126.73 447.312 129.504C446.853 129.884 445.566 129.808 445.036 129.426C444.323 128.911 444.598 127.964 445.296 127.355C447.143 125.746 449.006 124.155 450.961 122.46Z" fill="#E7EAEE"/>
<path fill-rule="evenodd" clip-rule="evenodd" d="M388.131 467.875C386.235 468.134 384.54 468.511 382.828 468.621C380.812 468.752 378.769 468.768 376.761 468.585C376.112 468.526 375.535 467.683 374.925 467.199C375.521 466.906 376.091 466.455 376.719 466.348C380.053 465.782 383.387 465.141 386.75 464.844C389.59 464.593 392.469 464.746 395.33 464.809C395.656 464.816 396.21 465.383 396.221 465.704C396.232 466.03 395.744 466.604 395.397 466.673C393.051 467.132 390.685 467.487 388.131 467.875Z" fill="#00160A"/>
<path fill-rule="evenodd" clip-rule="evenodd" d="M248.781 121.101C249.567 120.486 250.189 119.775 250.964 119.509C251.647 119.274 253.057 119.323 253.171 119.621C253.473 120.407 253.616 121.287 252.523 122.12C249.196 124.655 246.066 127.448 242.85 130.13C242.527 130.399 242.152 130.755 241.78 130.782C241.128 130.83 240.111 130.874 239.883 130.516C239.571 130.025 239.56 128.824 239.926 128.502C242.777 125.99 245.749 123.615 248.781 121.101Z" fill="#E7EAEE"/>
<path fill-rule="evenodd" clip-rule="evenodd" d="M459.603 129.938C462.223 127.641 464.889 125.591 467.441 123.408C468.368 122.614 469.319 122.01 470.2 122.96C470.982 123.801 470.505 124.822 469.615 125.568C467.065 127.701 464.582 129.918 461.96 131.957C461.453 132.35 460.432 132.082 459.648 132.119C459.633 131.457 459.618 130.794 459.603 129.938Z" fill="#E7EAEE"/>
<path fill-rule="evenodd" clip-rule="evenodd" d="M371.526 373C372.205 373.875 373.278 374.664 373.261 375.429C373.232 376.71 372.854 378.045 371.374 378.859C369.193 380.058 367.341 379.585 365.552 378.265C363.992 377.113 364.073 375.045 365.645 372.861C366.299 371.951 368.836 371.587 369.974 372.217C370.442 372.476 370.943 372.676 371.526 373ZM371.04 374.069C370.507 373.795 369.998 373.45 369.437 373.261C368.134 372.824 367.099 373.137 366.394 374.424C365.705 375.682 366.315 376.586 367.247 377.195C367.865 377.599 368.797 377.822 369.512 377.695C370.293 377.556 371.26 377.079 371.628 376.448C371.911 375.962 371.395 375.008 371.04 374.069Z" fill="#00160A"/>
<path fill-rule="evenodd" clip-rule="evenodd" d="M348.414 131.007C350.064 130.004 351.573 129.003 353.199 128.258C353.627 128.063 354.953 128.673 354.948 128.894C354.929 129.764 354.818 130.985 354.243 131.422C352.775 132.539 351.097 133.447 349.382 134.138C348.748 134.394 347.304 134.05 347.055 133.56C346.534 132.536 347.056 131.501 348.414 131.007Z" fill="#E7EAEE"/>
<defs>
<radialGradient id="paint0_radial" cx="0" cy="0" r="1" gradientUnits="userSpaceOnUse" gradientTransform="translate(398.45 312.992) rotate(91.4721) scale(674.36 647.034)">
<stop stop-color="#FFD914" stop-opacity="0.96"/>
<stop offset="1" stop-color="#FFAD00"/>
</radialGradient>
</defs>
</svg>
